<svg xmlns="http://www.w3.org/2000/svg" xmlns:xlink="http://www.w3.org/1999/xlink" width="115" zoomAndPan="magnify" viewBox="0 0 86.25 137.249998" height="183" preserveAspectRatio="xMidYMid meet" version="1.0"><defs><filter x="0%" y="0%" width="100%" height="100%" id="3134cf007c"><feColorMatrix values="0 0 0 0 1 0 0 0 0 1 0 0 0 0 1 0 0 0 1 0" color-interpolation-filters="sRGB"/></filter><clipPath id="3fc2fb6608"><path d="M 25 63 L 28 63 L 28 120.671875 L 25 120.671875 Z M 25 63 " clip-rule="nonzero"/></clipPath><clipPath id="b0b3e6f18a"><path d="M 25 63 L 29 63 L 29 120.671875 L 25 120.671875 Z M 25 63 " clip-rule="nonzero"/></clipPath><clipPath id="38e349ea24"><path d="M 51 33 L 66.917969 33 L 66.917969 55 L 51 55 Z M 51 33 " clip-rule="nonzero"/></clipPath><clipPath id="60373d0089"><path d="M 64 31 L 66.917969 31 L 66.917969 57 L 64 57 Z M 64 31 " clip-rule="nonzero"/></clipPath><clipPath id="d7402be3c0"><path d="M 0 7.65625 L 52 7.65625 L 52 30 L 0 30 Z M 0 7.65625 " clip-rule="nonzero"/></clipPath><clipPath id="1796e2445d"><path d="M 4 0.21875 L 85.507812 0.21875 L 85.507812 136.285156 L 4 136.285156 Z M 4 0.21875 " clip-rule="nonzero"/></clipPath><mask id="7132cab56c"><g filter="url(#3134cf007c)"><rect x="-8.625" width="103.5" fill="#000000" y="-13.725" height="164.699998" fill-opacity="0.17"/></g></mask><clipPath id="d546638e5e"><path d="M 31 67 L 35 67 L 35 135.542969 L 31 135.542969 Z M 31 67 " clip-rule="nonzero"/></clipPath><clipPath id="4484322886"><path d="M 30 67 L 35 67 L 35 135.542969 L 30 135.542969 Z M 30 67 " clip-rule="nonzero"/></clipPath><clipPath id="d17cb5edb3"><path d="M 77 28 L 81.070312 28 L 81.070312 60 L 77 60 Z M 77 28 " clip-rule="nonzero"/></clipPath><clipPath id="3a771e3386"><path d="M 1 0.21875 L 62 0.21875 L 62 27 L 1 27 Z M 1 0.21875 " clip-rule="nonzero"/></clipPath><clipPath id="2fa92abef8"><path d="M 0.765625 0.21875 L 63 0.21875 L 63 27 L 0.765625 27 Z M 0.765625 0.21875 " clip-rule="nonzero"/></clipPath><clipPath id="857e33eddb"><rect x="0" width="82" y="0" height="137"/></clipPath></defs><path fill="#1d2228" d="M 13.480469 117.742188 L 11.144531 117.203125 L 23.914062 62.121094 L 26.253906 62.660156 Z M 13.480469 117.742188 " fill-opacity="1" fill-rule="nonzero"/><path fill="#1d2228" d="M 23.648438 61.691406 L 10.714844 117.472656 L 13.746094 118.1875 L 26.679688 62.390625 Z M 11.574219 116.949219 L 24.179688 62.535156 L 25.820312 62.914062 L 13.210938 117.304688 Z M 11.574219 116.949219 " fill-opacity="1" fill-rule="nonzero"/><path fill="#1d2228" d="M 27.085938 62.660156 L 29.421875 62.121094 L 42.195312 117.203125 L 39.855469 117.742188 Z M 27.085938 62.660156 " fill-opacity="1" fill-rule="nonzero"/><path fill="#1d2228" d="M 29.691406 61.691406 L 26.65625 62.40625 L 39.589844 118.1875 L 42.625 117.472656 Z M 41.765625 116.949219 L 40.125 117.304688 L 27.515625 62.929688 L 29.15625 62.535156 Z M 41.765625 116.949219 " fill-opacity="1" fill-rule="nonzero"/><g clip-path="url(#3fc2fb6608)"><path fill="#1d2228" d="M 25.371094 63.792969 L 27.769531 63.792969 L 27.769531 120.351562 L 25.371094 120.351562 Z M 25.371094 63.792969 " fill-opacity="1" fill-rule="nonzero"/></g><g clip-path="url(#b0b3e6f18a)"><path fill="#1d2228" d="M 25.011719 63.449219 L 25.011719 120.726562 L 28.125 120.726562 L 28.125 63.449219 Z M 25.726562 120.007812 L 25.726562 64.164062 L 27.410156 64.164062 L 27.410156 120.007812 Z M 25.726562 120.007812 " fill-opacity="1" fill-rule="nonzero"/></g><path fill="#1d2228" d="M 18.496094 59.164062 L 34.640625 59.164062 L 34.640625 64.15625 L 18.496094 64.15625 Z M 18.496094 59.164062 " fill-opacity="1" fill-rule="nonzero"/><path fill="#1d2228" d="M 18.136719 58.804688 L 18.136719 64.515625 L 35 64.515625 L 35 58.804688 Z M 18.855469 63.796875 L 18.855469 59.519531 L 34.28125 59.519531 L 34.28125 63.796875 Z M 18.855469 63.796875 " fill-opacity="1" fill-rule="nonzero"/><path fill="#1d2228" d="M 52.25 39.421875 L 65.632812 34.226562 C 65.699219 40.753906 65.765625 47.28125 65.832031 53.808594 L 52.046875 48.410156 Z M 52.25 39.421875 " fill-opacity="1" fill-rule="nonzero"/><g clip-path="url(#38e349ea24)"><path fill="#1d2228" d="M 65.988281 33.707031 L 51.894531 39.175781 L 51.671875 48.65625 L 66.183594 54.332031 Z M 65.273438 34.746094 L 65.460938 53.28125 L 52.402344 48.171875 L 52.589844 39.667969 Z M 65.273438 34.746094 " fill-opacity="1" fill-rule="nonzero"/></g><g clip-path="url(#60373d0089)"><path fill="#1d2228" d="M 64.636719 31.628906 L 66.835938 31.628906 L 66.835938 56.40625 L 64.636719 56.40625 Z M 64.636719 31.628906 " fill-opacity="1" fill-rule="nonzero"/><path fill="#1d2228" d="M 64.277344 31.273438 L 64.277344 56.765625 L 67.191406 56.765625 L 67.191406 31.273438 Z M 64.996094 56.046875 L 64.996094 31.988281 L 66.476562 31.988281 L 66.476562 56.046875 Z M 64.996094 56.046875 " fill-opacity="1" fill-rule="nonzero"/></g><path fill="#1d2228" d="M 48.320312 37.941406 L 53.648438 37.941406 L 53.648438 50.113281 L 48.320312 50.113281 Z M 48.320312 37.941406 " fill-opacity="1" fill-rule="nonzero"/><path fill="#1d2228" d="M 47.960938 37.566406 L 47.960938 50.46875 L 54.003906 50.46875 L 54.003906 37.582031 Z M 48.675781 49.753906 L 48.675781 38.296875 L 53.289062 38.296875 L 53.289062 49.753906 Z M 48.675781 49.753906 " fill-opacity="1" fill-rule="nonzero"/><path fill="#1d2228" d="M 1.65625 27.03125 L 50.207031 27.03125 L 50.207031 61 L 1.65625 61 Z M 1.65625 27.03125 " fill-opacity="1" fill-rule="nonzero"/><path fill="#1d2228" d="M 1.296875 26.675781 L 1.296875 61.355469 L 50.5625 61.355469 L 50.5625 26.675781 Z M 2.015625 60.640625 L 2.015625 27.390625 L 49.847656 27.390625 L 49.847656 60.640625 Z M 15.949219 57.667969 C 12.4375 54.804688 8.808594 52.09375 5.0625 49.539062 C 4.632812 49.246094 5.0625 48.570312 5.492188 48.859375 C 9.242188 51.414062 12.875 54.125 16.386719 56.992188 C 16.785156 57.316406 16.351562 58 15.949219 57.667969 Z M 11.453125 57.582031 C 11.511719 57.488281 11.527344 57.390625 11.503906 57.28125 C 11.480469 57.175781 11.421875 57.089844 11.332031 57.027344 L 6.832031 53.3125 C 6.738281 53.253906 6.636719 53.234375 6.53125 53.257812 C 6.421875 53.28125 6.335938 53.339844 6.277344 53.433594 C 6.21875 53.527344 6.203125 53.628906 6.226562 53.734375 C 6.246094 53.84375 6.304688 53.929688 6.394531 53.988281 L 10.898438 57.707031 C 10.992188 57.765625 11.09375 57.785156 11.203125 57.757812 C 11.3125 57.734375 11.394531 57.675781 11.453125 57.582031 Z M 11.453125 57.582031 " fill-opacity="1" fill-rule="nonzero"/><path fill="#fbe7c6" d="M 10.949219 8.03125 C 10.257812 8.03125 9.570312 8.097656 8.890625 8.234375 C 8.210938 8.371094 7.546875 8.570312 6.90625 8.835938 C 6.265625 9.101562 5.660156 9.425781 5.082031 9.8125 C 4.503906 10.195312 3.972656 10.632812 3.480469 11.125 C 2.992188 11.613281 2.554688 12.148438 2.167969 12.722656 C 1.785156 13.300781 1.457031 13.910156 1.191406 14.550781 C 0.925781 15.191406 0.726562 15.851562 0.59375 16.53125 C 0.457031 17.210938 0.390625 17.898438 0.390625 18.589844 C 0.390625 19.285156 0.457031 19.972656 0.59375 20.652344 C 0.726562 21.332031 0.925781 21.992188 1.191406 22.632812 C 1.457031 23.273438 1.785156 23.882812 2.167969 24.457031 C 2.554688 25.035156 2.992188 25.570312 3.480469 26.058594 C 3.972656 26.550781 4.503906 26.988281 5.082031 27.371094 C 5.660156 27.757812 6.265625 28.082031 6.90625 28.347656 C 7.546875 28.613281 8.210938 28.8125 8.890625 28.949219 C 9.570312 29.085938 10.257812 29.152344 10.949219 29.152344 C 11.644531 29.152344 12.328125 29.085938 13.011719 28.949219 C 13.691406 28.8125 14.351562 28.613281 14.992188 28.347656 C 15.632812 28.082031 16.238281 27.757812 16.816406 27.371094 C 17.394531 26.988281 17.925781 26.550781 18.417969 26.058594 C 18.90625 25.570312 19.34375 25.035156 19.730469 24.457031 C 20.117188 23.882812 20.441406 23.273438 20.707031 22.632812 C 20.972656 21.992188 21.171875 21.332031 21.308594 20.652344 C 21.441406 19.972656 21.511719 19.285156 21.511719 18.589844 C 21.507812 17.898438 21.441406 17.210938 21.304688 16.53125 C 21.167969 15.851562 20.96875 15.191406 20.703125 14.550781 C 20.4375 13.910156 20.113281 13.304688 19.726562 12.726562 C 19.339844 12.152344 18.902344 11.617188 18.414062 11.128906 C 17.921875 10.636719 17.390625 10.199219 16.8125 9.8125 C 16.238281 9.429688 15.628906 9.101562 14.988281 8.835938 C 14.347656 8.570312 13.6875 8.371094 13.007812 8.234375 C 12.328125 8.101562 11.644531 8.03125 10.949219 8.03125 Z M 8.042969 18.316406 C 8.042969 18.683594 7.972656 19.039062 7.832031 19.378906 C 7.691406 19.71875 7.492188 20.019531 7.230469 20.277344 C 6.972656 20.539062 6.671875 20.742188 6.332031 20.882812 C 5.992188 21.023438 5.640625 21.09375 5.269531 21.09375 C 4.902344 21.09375 4.546875 21.023438 4.207031 20.882812 C 3.867188 20.742188 3.566406 20.542969 3.308594 20.28125 C 3.046875 20.023438 2.847656 19.722656 2.707031 19.382812 C 2.566406 19.042969 2.492188 18.6875 2.492188 18.320312 C 2.492188 17.953125 2.5625 17.597656 2.703125 17.257812 C 2.84375 16.917969 3.046875 16.617188 3.304688 16.359375 C 3.566406 16.097656 3.867188 15.898438 4.207031 15.757812 C 4.546875 15.617188 4.898438 15.546875 5.269531 15.546875 C 5.636719 15.546875 5.988281 15.617188 6.328125 15.757812 C 6.667969 15.898438 6.96875 16.097656 7.226562 16.359375 C 7.488281 16.617188 7.6875 16.917969 7.828125 17.257812 C 7.96875 17.59375 8.042969 17.949219 8.042969 18.316406 Z M 9.144531 21.261719 C 9.511719 21.261719 9.867188 21.332031 10.207031 21.472656 C 10.546875 21.613281 10.847656 21.8125 11.109375 22.074219 C 11.371094 22.332031 11.570312 22.632812 11.710938 22.972656 C 11.851562 23.3125 11.921875 23.667969 11.921875 24.035156 C 11.921875 24.402344 11.851562 24.757812 11.710938 25.097656 C 11.570312 25.4375 11.371094 25.738281 11.109375 26 C 10.851562 26.257812 10.550781 26.460938 10.210938 26.601562 C 9.871094 26.742188 9.515625 26.8125 9.148438 26.8125 C 8.78125 26.8125 8.425781 26.742188 8.085938 26.597656 C 7.746094 26.457031 7.445312 26.257812 7.183594 25.996094 C 6.925781 25.734375 6.726562 25.4375 6.585938 25.09375 C 6.445312 24.753906 6.375 24.402344 6.375 24.03125 C 6.375 23.664062 6.445312 23.3125 6.585938 22.972656 C 6.726562 22.632812 6.925781 22.335938 7.1875 22.074219 C 7.445312 21.816406 7.746094 21.613281 8.085938 21.472656 C 8.425781 21.332031 8.777344 21.261719 9.144531 21.261719 Z M 9.785156 15.972656 C 9.417969 15.972656 9.0625 15.902344 8.722656 15.761719 C 8.382812 15.621094 8.085938 15.417969 7.824219 15.160156 C 7.5625 14.898438 7.363281 14.597656 7.222656 14.257812 C 7.082031 13.917969 7.011719 13.566406 7.011719 13.195312 C 7.011719 12.828125 7.082031 12.476562 7.222656 12.136719 C 7.363281 11.796875 7.5625 11.496094 7.824219 11.234375 C 8.085938 10.976562 8.382812 10.773438 8.722656 10.632812 C 9.0625 10.492188 9.417969 10.421875 9.785156 10.421875 C 10.152344 10.421875 10.507812 10.492188 10.847656 10.632812 C 11.1875 10.773438 11.488281 10.976562 11.746094 11.234375 C 12.007812 11.496094 12.207031 11.796875 12.347656 12.136719 C 12.488281 12.476562 12.558594 12.828125 12.558594 13.195312 C 12.558594 13.566406 12.488281 13.917969 12.347656 14.257812 C 12.207031 14.597656 12.007812 14.898438 11.746094 15.160156 C 11.488281 15.417969 11.1875 15.621094 10.847656 15.761719 C 10.507812 15.902344 10.152344 15.972656 9.785156 15.972656 Z M 15.492188 24.921875 C 15.125 24.921875 14.769531 24.851562 14.429688 24.710938 C 14.089844 24.570312 13.789062 24.367188 13.53125 24.109375 C 13.269531 23.847656 13.070312 23.546875 12.929688 23.207031 C 12.789062 22.867188 12.71875 22.515625 12.71875 22.144531 C 12.71875 21.777344 12.789062 21.425781 12.929688 21.085938 C 13.070312 20.746094 13.269531 20.445312 13.53125 20.183594 C 13.789062 19.925781 14.089844 19.722656 14.429688 19.582031 C 14.769531 19.441406 15.125 19.371094 15.492188 19.371094 C 15.859375 19.371094 16.214844 19.441406 16.554688 19.582031 C 16.894531 19.722656 17.195312 19.925781 17.453125 20.183594 C 17.714844 20.445312 17.914062 20.746094 18.054688 21.085938 C 18.195312 21.425781 18.265625 21.777344 18.265625 22.144531 C 18.265625 22.515625 18.195312 22.871094 18.054688 23.210938 C 17.910156 23.550781 17.707031 23.851562 17.445312 24.113281 C 17.183594 24.371094 16.882812 24.570312 16.539062 24.710938 C 16.199219 24.851562 15.84375 24.917969 15.472656 24.917969 Z M 15.945312 18.242188 C 15.574219 18.242188 15.222656 18.171875 14.882812 18.03125 C 14.542969 17.890625 14.242188 17.6875 13.980469 17.429688 C 13.722656 17.167969 13.519531 16.867188 13.378906 16.527344 C 13.238281 16.1875 13.167969 15.835938 13.167969 15.464844 C 13.167969 15.097656 13.238281 14.746094 13.378906 14.40625 C 13.519531 14.066406 13.722656 13.765625 13.980469 13.503906 C 14.242188 13.246094 14.542969 13.042969 14.882812 12.902344 C 15.222656 12.761719 15.574219 12.691406 15.945312 12.691406 C 16.3125 12.691406 16.664062 12.761719 17.003906 12.902344 C 17.34375 13.042969 17.644531 13.246094 17.90625 13.503906 C 18.164062 13.765625 18.367188 14.066406 18.507812 14.40625 C 18.648438 14.746094 18.71875 15.097656 18.71875 15.464844 C 18.71875 15.835938 18.644531 16.191406 18.503906 16.53125 C 18.363281 16.871094 18.160156 17.171875 17.898438 17.433594 C 17.636719 17.691406 17.332031 17.890625 16.992188 18.03125 C 16.648438 18.171875 16.292969 18.238281 15.925781 18.238281 Z M 40.324219 8.03125 C 39.628906 8.03125 38.941406 8.097656 38.261719 8.234375 C 37.582031 8.371094 36.921875 8.570312 36.28125 8.835938 C 35.640625 9.101562 35.03125 9.425781 34.457031 9.8125 C 33.878906 10.195312 33.34375 10.632812 32.855469 11.125 C 32.363281 11.613281 31.925781 12.148438 31.542969 12.722656 C 31.15625 13.300781 30.832031 13.910156 30.566406 14.550781 C 30.300781 15.191406 30.101562 15.851562 29.964844 16.53125 C 29.828125 17.210938 29.761719 17.898438 29.761719 18.589844 C 29.761719 19.285156 29.828125 19.972656 29.964844 20.652344 C 30.101562 21.332031 30.300781 21.992188 30.566406 22.632812 C 30.832031 23.273438 31.15625 23.882812 31.542969 24.457031 C 31.925781 25.035156 32.363281 25.570312 32.855469 26.058594 C 33.34375 26.550781 33.878906 26.988281 34.457031 27.371094 C 35.03125 27.757812 35.640625 28.082031 36.28125 28.347656 C 36.921875 28.613281 37.582031 28.8125 38.261719 28.949219 C 38.941406 29.085938 39.628906 29.152344 40.324219 29.152344 C 41.015625 29.152344 41.703125 29.085938 42.382812 28.949219 C 43.0625 28.8125 43.722656 28.613281 44.363281 28.347656 C 45.003906 28.082031 45.613281 27.757812 46.191406 27.371094 C 46.765625 26.988281 47.300781 26.550781 47.789062 26.058594 C 48.28125 25.570312 48.71875 25.035156 49.101562 24.457031 C 49.488281 23.882812 49.8125 23.273438 50.078125 22.632812 C 50.34375 21.992188 50.542969 21.332031 50.679688 20.652344 C 50.816406 19.972656 50.882812 19.285156 50.882812 18.589844 C 50.882812 17.898438 50.8125 17.210938 50.679688 16.53125 C 50.542969 15.851562 50.339844 15.191406 50.078125 14.550781 C 49.8125 13.910156 49.484375 13.304688 49.101562 12.726562 C 48.714844 12.152344 48.277344 11.617188 47.785156 11.128906 C 47.296875 10.636719 46.761719 10.199219 46.1875 9.8125 C 45.609375 9.429688 45.003906 9.101562 44.363281 8.835938 C 43.722656 8.570312 43.0625 8.371094 42.382812 8.234375 C 41.703125 8.101562 41.015625 8.03125 40.324219 8.03125 Z M 37.410156 18.316406 C 37.414062 18.683594 37.34375 19.039062 37.203125 19.378906 C 37.0625 19.71875 36.859375 20.019531 36.601562 20.28125 C 36.339844 20.539062 36.039062 20.742188 35.699219 20.882812 C 35.359375 21.023438 35.007812 21.09375 34.640625 21.09375 C 34.269531 21.09375 33.917969 21.023438 33.578125 20.882812 C 33.234375 20.742188 32.9375 20.542969 32.675781 20.28125 C 32.414062 20.019531 32.214844 19.722656 32.074219 19.378906 C 31.933594 19.039062 31.863281 18.6875 31.863281 18.320312 C 31.863281 17.949219 31.933594 17.597656 32.074219 17.257812 C 32.214844 16.917969 32.417969 16.617188 32.675781 16.355469 C 32.9375 16.097656 33.238281 15.894531 33.578125 15.753906 C 33.917969 15.613281 34.273438 15.542969 34.640625 15.546875 C 35.007812 15.546875 35.363281 15.617188 35.699219 15.757812 C 36.039062 15.898438 36.339844 16.097656 36.597656 16.359375 C 36.859375 16.617188 37.058594 16.917969 37.199219 17.257812 C 37.339844 17.59375 37.410156 17.949219 37.410156 18.316406 Z M 38.519531 21.261719 C 38.886719 21.261719 39.238281 21.332031 39.578125 21.472656 C 39.921875 21.613281 40.21875 21.816406 40.480469 22.074219 C 40.742188 22.335938 40.941406 22.636719 41.082031 22.976562 C 41.222656 23.316406 41.292969 23.667969 41.292969 24.039062 C 41.292969 24.40625 41.222656 24.761719 41.082031 25.101562 C 40.941406 25.441406 40.738281 25.738281 40.480469 26 C 40.21875 26.257812 39.917969 26.460938 39.578125 26.601562 C 39.238281 26.742188 38.882812 26.8125 38.515625 26.8125 C 38.148438 26.8125 37.792969 26.738281 37.453125 26.597656 C 37.113281 26.457031 36.8125 26.257812 36.554688 25.996094 C 36.292969 25.734375 36.09375 25.433594 35.953125 25.09375 C 35.8125 24.753906 35.742188 24.402344 35.742188 24.03125 C 35.746094 23.664062 35.816406 23.3125 35.957031 22.972656 C 36.097656 22.632812 36.296875 22.332031 36.558594 22.074219 C 36.816406 21.8125 37.117188 21.613281 37.457031 21.472656 C 37.796875 21.332031 38.152344 21.261719 38.519531 21.261719 Z M 39.140625 15.972656 C 38.773438 15.972656 38.417969 15.902344 38.078125 15.761719 C 37.738281 15.621094 37.4375 15.417969 37.179688 15.160156 C 36.917969 14.898438 36.71875 14.597656 36.578125 14.257812 C 36.4375 13.917969 36.367188 13.566406 36.367188 13.195312 C 36.367188 12.828125 36.4375 12.476562 36.578125 12.136719 C 36.71875 11.796875 36.917969 11.496094 37.179688 11.234375 C 37.4375 10.976562 37.738281 10.773438 38.078125 10.632812 C 38.417969 10.492188 38.773438 10.421875 39.140625 10.421875 C 39.507812 10.421875 39.863281 10.492188 40.203125 10.632812 C 40.542969 10.773438 40.84375 10.976562 41.101562 11.234375 C 41.363281 11.496094 41.5625 11.796875 41.703125 12.136719 C 41.84375 12.476562 41.914062 12.828125 41.914062 13.195312 C 41.914062 13.566406 41.84375 13.917969 41.703125 14.257812 C 41.5625 14.597656 41.363281 14.898438 41.101562 15.160156 C 40.84375 15.417969 40.542969 15.621094 40.203125 15.761719 C 39.863281 15.902344 39.507812 15.972656 39.140625 15.972656 Z M 44.847656 24.921875 C 44.480469 24.921875 44.125 24.851562 43.785156 24.710938 C 43.445312 24.570312 43.144531 24.371094 42.882812 24.109375 C 42.625 23.851562 42.421875 23.550781 42.28125 23.210938 C 42.140625 22.871094 42.070312 22.515625 42.070312 22.148438 C 42.070312 21.78125 42.140625 21.425781 42.28125 21.085938 C 42.421875 20.746094 42.621094 20.445312 42.878906 20.1875 C 43.140625 19.925781 43.441406 19.726562 43.78125 19.582031 C 44.121094 19.441406 44.472656 19.371094 44.84375 19.371094 C 45.210938 19.371094 45.566406 19.441406 45.90625 19.582031 C 46.246094 19.722656 46.542969 19.925781 46.804688 20.183594 C 47.066406 20.445312 47.265625 20.746094 47.40625 21.085938 C 47.546875 21.425781 47.617188 21.777344 47.617188 22.144531 C 47.617188 22.511719 47.546875 22.867188 47.40625 23.207031 C 47.265625 23.542969 47.0625 23.84375 46.804688 24.105469 C 46.542969 24.363281 46.246094 24.5625 45.90625 24.703125 C 45.566406 24.84375 45.214844 24.917969 44.847656 24.917969 Z M 45.296875 18.242188 C 44.929688 18.242188 44.578125 18.171875 44.234375 18.03125 C 43.894531 17.890625 43.59375 17.691406 43.335938 17.429688 C 43.074219 17.171875 42.875 16.871094 42.734375 16.53125 C 42.589844 16.191406 42.519531 15.835938 42.519531 15.46875 C 42.519531 15.101562 42.589844 14.746094 42.730469 14.40625 C 42.871094 14.066406 43.070312 13.765625 43.332031 13.507812 C 43.589844 13.246094 43.890625 13.042969 44.230469 12.902344 C 44.570312 12.761719 44.925781 12.691406 45.292969 12.691406 C 45.660156 12.691406 46.015625 12.761719 46.355469 12.902344 C 46.695312 13.042969 46.996094 13.242188 47.257812 13.503906 C 47.515625 13.765625 47.71875 14.066406 47.859375 14.40625 C 48 14.746094 48.070312 15.097656 48.070312 15.464844 C 48.066406 15.832031 47.996094 16.1875 47.855469 16.527344 C 47.714844 16.863281 47.515625 17.164062 47.253906 17.421875 C 46.996094 17.683594 46.695312 17.882812 46.359375 18.023438 C 46.019531 18.164062 45.664062 18.234375 45.296875 18.238281 Z M 45.296875 18.242188 " fill-opacity="1" fill-rule="nonzero"/><g clip-path="url(#d7402be3c0)"><path fill="#1d2228" d="M 9.144531 20.832031 C 8.722656 20.832031 8.3125 20.914062 7.921875 21.078125 C 7.527344 21.238281 7.183594 21.46875 6.882812 21.769531 C 6.582031 22.070312 6.351562 22.417969 6.1875 22.808594 C 6.027344 23.199219 5.945312 23.609375 5.945312 24.03125 C 5.945312 24.457031 6.027344 24.867188 6.1875 25.257812 C 6.351562 25.648438 6.582031 25.996094 6.882812 26.296875 C 7.183594 26.597656 7.527344 26.828125 7.921875 26.988281 C 8.3125 27.152344 8.722656 27.234375 9.144531 27.234375 C 9.570312 27.234375 9.976562 27.152344 10.371094 26.988281 C 10.761719 26.828125 11.109375 26.597656 11.410156 26.296875 C 11.707031 25.996094 11.941406 25.648438 12.101562 25.257812 C 12.265625 24.867188 12.34375 24.457031 12.34375 24.03125 C 12.34375 23.609375 12.265625 23.199219 12.101562 22.808594 C 11.9375 22.417969 11.707031 22.070312 11.40625 21.769531 C 11.105469 21.472656 10.761719 21.238281 10.371094 21.078125 C 9.976562 20.914062 9.570312 20.832031 9.144531 20.832031 Z M 9.144531 26.539062 C 8.8125 26.539062 8.492188 26.476562 8.1875 26.347656 C 7.878906 26.222656 7.609375 26.039062 7.375 25.804688 C 7.136719 25.570312 6.957031 25.300781 6.832031 24.992188 C 6.703125 24.683594 6.640625 24.367188 6.640625 24.03125 C 6.640625 23.699219 6.703125 23.382812 6.832031 23.074219 C 6.957031 22.765625 7.136719 22.496094 7.375 22.261719 C 7.609375 22.027344 7.878906 21.84375 8.1875 21.71875 C 8.492188 21.589844 8.8125 21.527344 9.144531 21.527344 C 9.476562 21.527344 9.796875 21.589844 10.105469 21.71875 C 10.410156 21.84375 10.683594 22.027344 10.917969 22.261719 C 11.152344 22.496094 11.332031 22.765625 11.460938 23.074219 C 11.585938 23.382812 11.652344 23.699219 11.652344 24.03125 C 11.652344 24.367188 11.585938 24.683594 11.460938 24.992188 C 11.332031 25.300781 11.152344 25.570312 10.917969 25.804688 C 10.683594 26.039062 10.410156 26.222656 10.105469 26.347656 C 9.796875 26.476562 9.476562 26.539062 9.144531 26.539062 Z M 44.847656 18.941406 C 44.421875 18.941406 44.015625 19.023438 43.621094 19.1875 C 43.230469 19.347656 42.882812 19.578125 42.585938 19.878906 C 42.285156 20.179688 42.054688 20.527344 41.890625 20.917969 C 41.726562 21.308594 41.648438 21.71875 41.648438 22.144531 C 41.648438 22.566406 41.726562 22.976562 41.890625 23.367188 C 42.054688 23.757812 42.285156 24.105469 42.585938 24.40625 C 42.882812 24.707031 43.230469 24.9375 43.621094 25.101562 C 44.015625 25.261719 44.421875 25.34375 44.847656 25.34375 C 45.273438 25.34375 45.679688 25.261719 46.070312 25.101562 C 46.464844 24.9375 46.808594 24.707031 47.109375 24.40625 C 47.410156 24.105469 47.640625 23.757812 47.804688 23.367188 C 47.964844 22.976562 48.046875 22.566406 48.046875 22.144531 C 48.046875 21.71875 47.964844 21.3125 47.804688 20.917969 C 47.640625 20.527344 47.410156 20.179688 47.109375 19.882812 C 46.808594 19.582031 46.464844 19.351562 46.070312 19.1875 C 45.679688 19.023438 45.273438 18.941406 44.847656 18.941406 Z M 44.847656 24.648438 C 44.515625 24.648438 44.195312 24.585938 43.886719 24.457031 C 43.582031 24.332031 43.308594 24.148438 43.074219 23.914062 C 42.839844 23.679688 42.660156 23.410156 42.53125 23.101562 C 42.40625 22.792969 42.339844 22.476562 42.339844 22.144531 C 42.339844 21.8125 42.40625 21.492188 42.53125 21.183594 C 42.660156 20.875 42.839844 20.605469 43.074219 20.371094 C 43.308594 20.136719 43.582031 19.953125 43.886719 19.828125 C 44.195312 19.699219 44.515625 19.636719 44.847656 19.636719 C 45.179688 19.636719 45.5 19.699219 45.804688 19.828125 C 46.113281 19.953125 46.382812 20.136719 46.621094 20.371094 C 46.855469 20.605469 47.035156 20.875 47.164062 21.183594 C 47.289062 21.492188 47.351562 21.8125 47.351562 22.144531 C 47.351562 22.476562 47.289062 22.792969 47.164062 23.101562 C 47.035156 23.410156 46.855469 23.679688 46.621094 23.914062 C 46.382812 24.148438 46.113281 24.332031 45.804688 24.457031 C 45.5 24.585938 45.179688 24.648438 44.847656 24.648438 Z M 8.46875 18.316406 C 8.46875 17.890625 8.386719 17.484375 8.226562 17.089844 C 8.0625 16.699219 7.832031 16.351562 7.53125 16.054688 C 7.230469 15.753906 6.886719 15.523438 6.492188 15.359375 C 6.101562 15.195312 5.691406 15.117188 5.269531 15.117188 C 4.84375 15.117188 4.4375 15.195312 4.042969 15.359375 C 3.652344 15.523438 3.304688 15.753906 3.003906 16.054688 C 2.707031 16.351562 2.472656 16.699219 2.3125 17.089844 C 2.148438 17.484375 2.066406 17.890625 2.066406 18.316406 C 2.066406 18.742188 2.148438 19.148438 2.3125 19.539062 C 2.472656 19.933594 2.707031 20.277344 3.003906 20.578125 C 3.304688 20.878906 3.652344 21.109375 4.042969 21.273438 C 4.4375 21.433594 4.84375 21.515625 5.269531 21.515625 C 5.691406 21.515625 6.101562 21.433594 6.492188 21.273438 C 6.882812 21.109375 7.230469 20.878906 7.53125 20.578125 C 7.832031 20.277344 8.0625 19.933594 8.222656 19.539062 C 8.386719 19.148438 8.46875 18.742188 8.46875 18.316406 Z M 5.269531 20.820312 C 4.9375 20.820312 4.617188 20.757812 4.308594 20.632812 C 4.003906 20.503906 3.730469 20.324219 3.496094 20.089844 C 3.261719 19.851562 3.082031 19.582031 2.953125 19.273438 C 2.824219 18.96875 2.761719 18.648438 2.761719 18.316406 C 2.761719 17.984375 2.824219 17.664062 2.953125 17.355469 C 3.082031 17.050781 3.261719 16.777344 3.496094 16.542969 C 3.730469 16.308594 4.003906 16.128906 4.308594 16 C 4.617188 15.875 4.9375 15.808594 5.269531 15.808594 C 5.601562 15.808594 5.921875 15.875 6.226562 16 C 6.535156 16.128906 6.804688 16.308594 7.039062 16.542969 C 7.273438 16.777344 7.457031 17.050781 7.582031 17.355469 C 7.710938 17.664062 7.773438 17.984375 7.773438 18.316406 C 7.773438 18.648438 7.710938 18.96875 7.582031 19.273438 C 7.457031 19.582031 7.273438 19.851562 7.039062 20.089844 C 6.804688 20.324219 6.535156 20.503906 6.226562 20.632812 C 5.921875 20.757812 5.601562 20.820312 5.269531 20.820312 Z M 9.785156 16.398438 C 10.210938 16.394531 10.617188 16.3125 11.007812 16.144531 C 11.398438 15.980469 11.742188 15.75 12.039062 15.445312 C 12.339844 15.144531 12.566406 14.800781 12.726562 14.40625 C 12.886719 14.015625 12.96875 13.605469 12.964844 13.183594 C 12.964844 12.757812 12.878906 12.351562 12.714844 11.960938 C 12.554688 11.570312 12.320312 11.226562 12.019531 10.925781 C 11.71875 10.628906 11.375 10.398438 10.980469 10.238281 C 10.589844 10.074219 10.179688 9.996094 9.757812 9.996094 C 9.332031 9.996094 8.925781 10.078125 8.535156 10.242188 C 8.144531 10.40625 7.796875 10.636719 7.5 10.9375 C 7.199219 11.234375 6.96875 11.582031 6.808594 11.972656 C 6.644531 12.367188 6.5625 12.773438 6.5625 13.195312 C 6.566406 13.621094 6.652344 14.03125 6.816406 14.421875 C 6.980469 14.816406 7.214844 15.160156 7.515625 15.460938 C 7.816406 15.761719 8.164062 15.992188 8.558594 16.152344 C 8.953125 16.316406 9.359375 16.398438 9.785156 16.398438 Z M 9.785156 10.695312 C 10.117188 10.695312 10.4375 10.757812 10.746094 10.886719 C 11.050781 11.011719 11.324219 11.195312 11.558594 11.429688 C 11.792969 11.664062 11.972656 11.933594 12.101562 12.242188 C 12.226562 12.546875 12.292969 12.867188 12.292969 13.199219 C 12.292969 13.53125 12.226562 13.851562 12.101562 14.160156 C 11.972656 14.464844 11.792969 14.738281 11.558594 14.972656 C 11.324219 15.207031 11.050781 15.386719 10.746094 15.515625 C 10.4375 15.644531 10.117188 15.707031 9.785156 15.707031 C 9.453125 15.707031 9.132812 15.644531 8.828125 15.515625 C 8.519531 15.386719 8.25 15.207031 8.015625 14.972656 C 7.777344 14.738281 7.597656 14.464844 7.472656 14.160156 C 7.34375 13.851562 7.28125 13.53125 7.28125 13.199219 C 7.28125 12.867188 7.34375 12.546875 7.472656 12.242188 C 7.597656 11.933594 7.777344 11.664062 8.015625 11.429688 C 8.25 11.195312 8.519531 11.011719 8.828125 10.886719 C 9.132812 10.757812 9.453125 10.695312 9.785156 10.695312 Z M 40.324219 7.761719 C 39.609375 7.761719 38.90625 7.832031 38.210938 7.96875 C 37.511719 8.109375 36.835938 8.316406 36.179688 8.585938 C 35.519531 8.859375 34.898438 9.191406 34.304688 9.585938 C 33.714844 9.984375 33.167969 10.429688 32.664062 10.933594 C 32.164062 11.4375 31.714844 11.984375 31.316406 12.574219 C 30.921875 13.167969 30.589844 13.789062 30.316406 14.449219 C 30.046875 15.105469 29.839844 15.78125 29.703125 16.480469 C 29.5625 17.175781 29.492188 17.878906 29.492188 18.589844 C 29.492188 19.300781 29.5625 20.007812 29.703125 20.703125 C 29.839844 21.402344 30.046875 22.078125 30.316406 22.734375 C 30.589844 23.394531 30.921875 24.015625 31.316406 24.609375 C 31.714844 25.199219 32.164062 25.746094 32.664062 26.25 C 33.167969 26.75 33.714844 27.199219 34.304688 27.597656 C 34.898438 27.992188 35.519531 28.324219 36.179688 28.597656 C 36.835938 28.867188 37.511719 29.074219 38.210938 29.210938 C 38.90625 29.351562 39.609375 29.421875 40.324219 29.421875 C 41.035156 29.421875 41.738281 29.351562 42.433594 29.210938 C 43.132812 29.074219 43.808594 28.867188 44.464844 28.597656 C 45.125 28.324219 45.746094 27.992188 46.339844 27.597656 C 46.929688 27.199219 47.476562 26.75 47.980469 26.25 C 48.484375 25.746094 48.929688 25.199219 49.328125 24.609375 C 49.722656 24.015625 50.054688 23.394531 50.328125 22.734375 C 50.597656 22.078125 50.804688 21.402344 50.941406 20.703125 C 51.082031 20.007812 51.152344 19.300781 51.152344 18.589844 C 51.152344 17.878906 51.082031 17.175781 50.941406 16.480469 C 50.800781 15.78125 50.597656 15.105469 50.324219 14.449219 C 50.050781 13.792969 49.71875 13.167969 49.324219 12.578125 C 48.929688 11.988281 48.480469 11.441406 47.976562 10.9375 C 47.472656 10.433594 46.925781 9.984375 46.335938 9.589844 C 45.746094 9.195312 45.121094 8.863281 44.464844 8.589844 C 43.808594 8.316406 43.132812 8.113281 42.433594 7.972656 C 41.738281 7.832031 41.03125 7.761719 40.324219 7.761719 Z M 40.324219 28.726562 C 39.65625 28.726562 38.996094 28.660156 38.34375 28.53125 C 37.691406 28.402344 37.058594 28.210938 36.445312 27.957031 C 35.828125 27.703125 35.246094 27.390625 34.691406 27.019531 C 34.136719 26.652344 33.625 26.230469 33.15625 25.761719 C 32.683594 25.289062 32.261719 24.777344 31.894531 24.222656 C 31.523438 23.671875 31.210938 23.085938 30.957031 22.472656 C 30.703125 21.859375 30.507812 21.222656 30.378906 20.570312 C 30.25 19.917969 30.183594 19.257812 30.183594 18.59375 C 30.183594 17.929688 30.25 17.269531 30.378906 16.617188 C 30.507812 15.964844 30.699219 15.332031 30.953125 14.714844 C 31.210938 14.101562 31.519531 13.515625 31.890625 12.960938 C 32.261719 12.410156 32.679688 11.898438 33.152344 11.425781 C 33.621094 10.957031 34.132812 10.535156 34.6875 10.164062 C 35.238281 9.796875 35.824219 9.484375 36.4375 9.230469 C 37.054688 8.972656 37.6875 8.78125 38.339844 8.652344 C 38.992188 8.523438 39.652344 8.457031 40.316406 8.457031 C 40.984375 8.457031 41.640625 8.523438 42.292969 8.652344 C 42.949219 8.78125 43.582031 8.972656 44.195312 9.226562 C 44.8125 9.484375 45.394531 9.796875 45.949219 10.164062 C 46.503906 10.535156 47.015625 10.953125 47.484375 11.425781 C 47.957031 11.894531 48.375 12.40625 48.746094 12.960938 C 49.113281 13.515625 49.425781 14.097656 49.683594 14.714844 C 49.9375 15.328125 50.128906 15.960938 50.257812 16.613281 C 50.386719 17.265625 50.453125 17.925781 50.453125 18.589844 C 50.453125 19.257812 50.386719 19.914062 50.257812 20.566406 C 50.125 21.21875 49.933594 21.851562 49.679688 22.46875 C 49.425781 23.082031 49.113281 23.664062 48.742188 24.21875 C 48.375 24.769531 47.953125 25.28125 47.484375 25.753906 C 47.011719 26.222656 46.5 26.644531 45.949219 27.015625 C 45.394531 27.382812 44.8125 27.695312 44.199219 27.949219 C 43.582031 28.207031 42.949219 28.398438 42.296875 28.527344 C 41.644531 28.660156 40.988281 28.726562 40.324219 28.726562 Z M 12.726562 15.480469 C 12.726562 15.90625 12.804688 16.3125 12.96875 16.707031 C 13.132812 17.097656 13.363281 17.445312 13.664062 17.742188 C 13.960938 18.042969 14.308594 18.273438 14.699219 18.4375 C 15.09375 18.601562 15.5 18.679688 15.925781 18.679688 C 16.351562 18.679688 16.757812 18.601562 17.148438 18.4375 C 17.542969 18.273438 17.886719 18.042969 18.1875 17.742188 C 18.488281 17.445312 18.71875 17.097656 18.882812 16.707031 C 19.042969 16.3125 19.125 15.90625 19.125 15.480469 C 19.125 15.054688 19.042969 14.648438 18.882812 14.257812 C 18.71875 13.863281 18.488281 13.519531 18.1875 13.21875 C 17.886719 12.917969 17.542969 12.6875 17.148438 12.523438 C 16.757812 12.363281 16.351562 12.28125 15.925781 12.28125 C 15.503906 12.28125 15.097656 12.363281 14.707031 12.523438 C 14.316406 12.683594 13.96875 12.914062 13.667969 13.210938 C 13.371094 13.511719 13.136719 13.855469 12.976562 14.246094 C 12.8125 14.632812 12.726562 15.039062 12.726562 15.460938 Z M 18.429688 15.480469 C 18.429688 15.8125 18.367188 16.132812 18.242188 16.441406 C 18.113281 16.746094 17.933594 17.019531 17.699219 17.253906 C 17.460938 17.488281 17.191406 17.667969 16.882812 17.796875 C 16.578125 17.921875 16.257812 17.988281 15.925781 17.988281 C 15.59375 17.988281 15.273438 17.921875 14.964844 17.796875 C 14.660156 17.667969 14.386719 17.488281 14.152344 17.253906 C 13.917969 17.019531 13.738281 16.746094 13.609375 16.441406 C 13.484375 16.132812 13.417969 15.8125 13.417969 15.480469 C 13.417969 15.148438 13.484375 14.828125 13.609375 14.523438 C 13.738281 14.214844 13.917969 13.945312 14.152344 13.707031 C 14.386719 13.472656 14.660156 13.292969 14.964844 13.164062 C 15.273438 13.039062 15.59375 12.976562 15.925781 12.976562 C 16.257812 12.976562 16.574219 13.039062 16.878906 13.164062 C 17.1875 13.289062 17.457031 13.46875 17.691406 13.703125 C 17.925781 13.933594 18.105469 14.203125 18.234375 14.507812 C 18.363281 14.8125 18.429688 15.132812 18.429688 15.460938 Z M 37.839844 18.34375 C 37.839844 17.921875 37.761719 17.511719 37.597656 17.121094 C 37.433594 16.726562 37.203125 16.382812 36.902344 16.082031 C 36.605469 15.78125 36.257812 15.550781 35.867188 15.386719 C 35.472656 15.226562 35.066406 15.144531 34.640625 15.144531 C 34.214844 15.144531 33.808594 15.226562 33.417969 15.386719 C 33.023438 15.550781 32.679688 15.78125 32.378906 16.082031 C 32.078125 16.382812 31.847656 16.726562 31.683594 17.121094 C 31.523438 17.511719 31.441406 17.921875 31.441406 18.34375 C 31.441406 18.769531 31.523438 19.175781 31.683594 19.570312 C 31.847656 19.960938 32.078125 20.308594 32.378906 20.609375 C 32.679688 20.90625 33.023438 21.140625 33.417969 21.300781 C 33.808594 21.464844 34.214844 21.546875 34.640625 21.546875 C 35.066406 21.542969 35.476562 21.460938 35.871094 21.296875 C 36.265625 21.132812 36.613281 20.898438 36.914062 20.597656 C 37.214844 20.292969 37.445312 19.945312 37.605469 19.550781 C 37.765625 19.152344 37.84375 18.742188 37.839844 18.316406 Z M 34.640625 20.851562 C 34.308594 20.851562 33.988281 20.785156 33.683594 20.660156 C 33.375 20.53125 33.105469 20.351562 32.867188 20.117188 C 32.632812 19.882812 32.453125 19.609375 32.324219 19.304688 C 32.199219 18.996094 32.136719 18.675781 32.136719 18.34375 C 32.136719 18.011719 32.199219 17.691406 32.324219 17.386719 C 32.453125 17.078125 32.632812 16.808594 32.867188 16.574219 C 33.105469 16.335938 33.375 16.15625 33.683594 16.03125 C 33.988281 15.902344 34.308594 15.839844 34.640625 15.839844 C 34.972656 15.839844 35.292969 15.902344 35.601562 16.03125 C 35.90625 16.15625 36.179688 16.335938 36.414062 16.574219 C 36.648438 16.808594 36.828125 17.078125 36.957031 17.386719 C 37.082031 17.691406 37.148438 18.011719 37.148438 18.34375 C 37.144531 18.675781 37.078125 18.992188 36.949219 19.292969 C 36.820312 19.597656 36.636719 19.867188 36.402344 20.097656 C 36.167969 20.328125 35.898438 20.507812 35.59375 20.632812 C 35.289062 20.757812 34.972656 20.820312 34.640625 20.820312 Z M 45.296875 18.703125 C 45.722656 18.703125 46.132812 18.621094 46.523438 18.460938 C 46.914062 18.296875 47.261719 18.066406 47.5625 17.765625 C 47.863281 17.464844 48.09375 17.117188 48.253906 16.726562 C 48.417969 16.335938 48.5 15.925781 48.5 15.503906 C 48.5 15.078125 48.417969 14.667969 48.253906 14.277344 C 48.09375 13.886719 47.863281 13.539062 47.5625 13.238281 C 47.261719 12.9375 46.914062 12.707031 46.523438 12.546875 C 46.132812 12.382812 45.722656 12.300781 45.296875 12.300781 C 44.875 12.300781 44.464844 12.382812 44.074219 12.546875 C 43.679688 12.707031 43.335938 12.9375 43.035156 13.238281 C 42.734375 13.539062 42.503906 13.886719 42.339844 14.277344 C 42.179688 14.667969 42.097656 15.078125 42.097656 15.503906 C 42.105469 15.921875 42.1875 16.328125 42.355469 16.714844 C 42.519531 17.101562 42.75 17.441406 43.050781 17.738281 C 43.347656 18.035156 43.695312 18.261719 44.082031 18.421875 C 44.472656 18.582031 44.878906 18.664062 45.296875 18.664062 Z M 45.296875 13 C 45.628906 13 45.949219 13.0625 46.257812 13.191406 C 46.5625 13.316406 46.835938 13.5 47.070312 13.734375 C 47.304688 13.96875 47.484375 14.238281 47.613281 14.546875 C 47.742188 14.855469 47.804688 15.171875 47.804688 15.503906 C 47.804688 15.839844 47.742188 16.15625 47.613281 16.464844 C 47.484375 16.773438 47.304688 17.042969 47.070312 17.277344 C 46.835938 17.511719 46.5625 17.695312 46.257812 17.820312 C 45.949219 17.949219 45.628906 18.011719 45.296875 18.011719 C 44.964844 18.011719 44.644531 17.949219 44.339844 17.820312 C 44.03125 17.695312 43.761719 17.511719 43.527344 17.277344 C 43.292969 17.042969 43.109375 16.773438 42.984375 16.464844 C 42.855469 16.15625 42.792969 15.839844 42.792969 15.503906 C 42.789062 15.171875 42.847656 14.847656 42.972656 14.535156 C 43.097656 14.222656 43.277344 13.949219 43.511719 13.707031 C 43.746094 13.46875 44.019531 13.285156 44.332031 13.15625 C 44.640625 13.023438 44.960938 12.960938 45.296875 12.960938 Z M 10.949219 7.761719 C 10.238281 7.761719 9.535156 7.832031 8.835938 7.96875 C 8.140625 8.109375 7.460938 8.316406 6.804688 8.585938 C 6.148438 8.859375 5.523438 9.191406 4.933594 9.585938 C 4.34375 9.984375 3.796875 10.429688 3.292969 10.933594 C 2.789062 11.4375 2.339844 11.984375 1.945312 12.574219 C 1.550781 13.167969 1.21875 13.789062 0.945312 14.449219 C 0.671875 15.105469 0.46875 15.78125 0.328125 16.480469 C 0.191406 17.175781 0.121094 17.878906 0.121094 18.589844 C 0.121094 19.300781 0.191406 20.007812 0.328125 20.703125 C 0.46875 21.402344 0.671875 22.078125 0.945312 22.734375 C 1.21875 23.394531 1.550781 24.015625 1.945312 24.609375 C 2.339844 25.199219 2.789062 25.746094 3.292969 26.25 C 3.796875 26.75 4.34375 27.199219 4.933594 27.597656 C 5.523438 27.992188 6.148438 28.324219 6.804688 28.597656 C 7.460938 28.867188 8.140625 29.074219 8.835938 29.210938 C 9.535156 29.351562 10.238281 29.421875 10.949219 29.421875 C 11.660156 29.421875 12.363281 29.351562 13.0625 29.210938 C 13.757812 29.074219 14.4375 28.867188 15.09375 28.597656 C 15.75 28.324219 16.375 27.992188 16.964844 27.597656 C 17.558594 27.199219 18.105469 26.75 18.605469 26.25 C 19.109375 25.746094 19.558594 25.199219 19.953125 24.609375 C 20.347656 24.015625 20.683594 23.394531 20.953125 22.734375 C 21.226562 22.078125 21.433594 21.402344 21.570312 20.703125 C 21.710938 20.007812 21.777344 19.300781 21.777344 18.589844 C 21.777344 17.878906 21.707031 17.175781 21.570312 16.480469 C 21.429688 15.78125 21.222656 15.105469 20.953125 14.449219 C 20.679688 13.792969 20.34375 13.167969 19.949219 12.578125 C 19.554688 11.988281 19.105469 11.441406 18.605469 10.9375 C 18.101562 10.433594 17.554688 9.984375 16.964844 9.589844 C 16.371094 9.195312 15.75 8.863281 15.09375 8.589844 C 14.433594 8.316406 13.757812 8.113281 13.0625 7.972656 C 12.363281 7.832031 11.660156 7.761719 10.949219 7.761719 Z M 10.949219 28.726562 C 10.285156 28.726562 9.625 28.660156 8.972656 28.53125 C 8.320312 28.402344 7.6875 28.210938 7.070312 27.957031 C 6.457031 27.703125 5.871094 27.390625 5.316406 27.019531 C 4.765625 26.652344 4.253906 26.230469 3.78125 25.761719 C 3.3125 25.289062 2.890625 24.777344 2.519531 24.222656 C 2.152344 23.671875 1.839844 23.085938 1.582031 22.472656 C 1.328125 21.859375 1.136719 21.222656 1.007812 20.570312 C 0.875 19.917969 0.8125 19.257812 0.8125 18.59375 C 0.8125 17.929688 0.875 17.269531 1.003906 16.617188 C 1.136719 15.964844 1.328125 15.332031 1.582031 14.714844 C 1.835938 14.101562 2.148438 13.515625 2.519531 12.960938 C 2.886719 12.410156 3.308594 11.898438 3.777344 11.425781 C 4.25 10.957031 4.761719 10.535156 5.3125 10.164062 C 5.867188 9.796875 6.453125 9.484375 7.066406 9.230469 C 7.679688 8.972656 8.316406 8.78125 8.96875 8.652344 C 9.621094 8.523438 10.277344 8.457031 10.945312 8.457031 C 11.609375 8.457031 12.269531 8.523438 12.921875 8.652344 C 13.574219 8.78125 14.207031 8.972656 14.824219 9.226562 C 15.4375 9.484375 16.023438 9.796875 16.574219 10.164062 C 17.128906 10.535156 17.640625 10.953125 18.113281 11.425781 C 18.582031 11.894531 19.003906 12.40625 19.371094 12.960938 C 19.742188 13.515625 20.054688 14.097656 20.308594 14.714844 C 20.5625 15.328125 20.757812 15.960938 20.886719 16.613281 C 21.015625 17.265625 21.082031 17.925781 21.082031 18.589844 C 21.082031 19.257812 21.015625 19.914062 20.882812 20.566406 C 20.753906 21.21875 20.5625 21.855469 20.308594 22.46875 C 20.054688 23.082031 19.742188 23.667969 19.371094 24.21875 C 19 24.773438 18.582031 25.285156 18.113281 25.753906 C 17.640625 26.226562 17.128906 26.644531 16.578125 27.015625 C 16.023438 27.382812 15.441406 27.695312 14.824219 27.953125 C 14.210938 28.207031 13.578125 28.398438 12.925781 28.53125 C 12.273438 28.660156 11.613281 28.726562 10.949219 28.726562 Z M 38.515625 20.832031 C 38.089844 20.832031 37.683594 20.914062 37.289062 21.078125 C 36.898438 21.238281 36.550781 21.46875 36.25 21.769531 C 35.953125 22.070312 35.71875 22.417969 35.558594 22.808594 C 35.394531 23.199219 35.3125 23.609375 35.3125 24.03125 C 35.3125 24.457031 35.394531 24.867188 35.558594 25.257812 C 35.71875 25.648438 35.953125 25.996094 36.25 26.296875 C 36.550781 26.597656 36.898438 26.828125 37.289062 26.988281 C 37.683594 27.152344 38.089844 27.234375 38.515625 27.234375 C 38.9375 27.234375 39.347656 27.152344 39.738281 26.988281 C 40.132812 26.828125 40.476562 26.597656 40.777344 26.296875 C 41.078125 25.996094 41.308594 25.648438 41.472656 25.257812 C 41.632812 24.867188 41.714844 24.457031 41.714844 24.03125 C 41.710938 23.609375 41.628906 23.203125 41.464844 22.8125 C 41.304688 22.421875 41.070312 22.078125 40.773438 21.777344 C 40.472656 21.476562 40.128906 21.246094 39.738281 21.082031 C 39.347656 20.917969 38.941406 20.835938 38.519531 20.832031 Z M 38.515625 26.539062 C 38.183594 26.539062 37.863281 26.476562 37.554688 26.347656 C 37.25 26.222656 36.976562 26.039062 36.742188 25.804688 C 36.507812 25.570312 36.328125 25.300781 36.199219 24.992188 C 36.070312 24.683594 36.007812 24.367188 36.007812 24.03125 C 36.007812 23.699219 36.070312 23.382812 36.199219 23.074219 C 36.328125 22.765625 36.507812 22.496094 36.742188 22.261719 C 36.976562 22.027344 37.25 21.84375 37.554688 21.71875 C 37.863281 21.589844 38.183594 21.527344 38.515625 21.527344 C 38.847656 21.527344 39.167969 21.589844 39.472656 21.71875 C 39.78125 21.84375 40.050781 22.027344 40.285156 22.261719 C 40.519531 22.496094 40.703125 22.765625 40.828125 23.074219 C 40.957031 23.382812 41.019531 23.699219 41.019531 24.03125 C 41.019531 24.363281 40.957031 24.683594 40.828125 24.992188 C 40.703125 25.296875 40.523438 25.570312 40.289062 25.804688 C 40.054688 26.039062 39.78125 26.21875 39.476562 26.347656 C 39.167969 26.472656 38.851562 26.539062 38.519531 26.539062 Z M 39.140625 16.398438 C 39.566406 16.398438 39.972656 16.316406 40.367188 16.152344 C 40.757812 15.992188 41.105469 15.761719 41.402344 15.460938 C 41.703125 15.160156 41.933594 14.8125 42.097656 14.421875 C 42.261719 14.03125 42.339844 13.621094 42.339844 13.195312 C 42.339844 12.773438 42.261719 12.363281 42.097656 11.972656 C 41.933594 11.578125 41.703125 11.234375 41.402344 10.933594 C 41.105469 10.632812 40.757812 10.402344 40.367188 10.238281 C 39.972656 10.078125 39.566406 9.996094 39.140625 9.996094 C 38.714844 9.996094 38.308594 10.078125 37.917969 10.238281 C 37.523438 10.402344 37.179688 10.632812 36.878906 10.933594 C 36.578125 11.234375 36.347656 11.578125 36.183594 11.972656 C 36.023438 12.363281 35.941406 12.773438 35.941406 13.195312 C 35.941406 13.621094 36.023438 14.027344 36.183594 14.421875 C 36.347656 14.8125 36.578125 15.160156 36.878906 15.457031 C 37.179688 15.757812 37.523438 15.988281 37.917969 16.152344 C 38.308594 16.316406 38.714844 16.398438 39.140625 16.398438 Z M 39.140625 10.695312 C 39.472656 10.695312 39.792969 10.757812 40.101562 10.886719 C 40.40625 11.011719 40.679688 11.195312 40.914062 11.429688 C 41.148438 11.664062 41.328125 11.933594 41.457031 12.242188 C 41.582031 12.546875 41.648438 12.867188 41.648438 13.199219 C 41.648438 13.53125 41.582031 13.851562 41.457031 14.160156 C 41.328125 14.464844 41.148438 14.738281 40.914062 14.972656 C 40.679688 15.207031 40.40625 15.386719 40.101562 15.515625 C 39.792969 15.644531 39.472656 15.707031 39.140625 15.707031 C 38.808594 15.707031 38.488281 15.644531 38.183594 15.515625 C 37.875 15.386719 37.605469 15.207031 37.367188 14.972656 C 37.132812 14.738281 36.953125 14.464844 36.824219 14.160156 C 36.699219 13.851562 36.636719 13.53125 36.636719 13.199219 C 36.636719 12.867188 36.699219 12.546875 36.824219 12.242188 C 36.953125 11.933594 37.132812 11.664062 37.367188 11.429688 C 37.605469 11.195312 37.875 11.011719 38.183594 10.886719 C 38.488281 10.757812 38.808594 10.695312 39.140625 10.695312 Z M 15.472656 18.929688 C 15.050781 18.929688 14.640625 19.007812 14.25 19.171875 C 13.859375 19.335938 13.511719 19.566406 13.210938 19.867188 C 12.910156 20.164062 12.679688 20.511719 12.519531 20.902344 C 12.355469 21.296875 12.273438 21.703125 12.273438 22.128906 C 12.273438 22.554688 12.355469 22.960938 12.519531 23.351562 C 12.679688 23.746094 12.910156 24.089844 13.210938 24.390625 C 13.511719 24.691406 13.859375 24.921875 14.25 25.085938 C 14.640625 25.246094 15.050781 25.328125 15.472656 25.328125 C 15.898438 25.328125 16.308594 25.246094 16.699219 25.085938 C 17.089844 24.921875 17.4375 24.691406 17.738281 24.390625 C 18.039062 24.089844 18.269531 23.746094 18.429688 23.351562 C 18.59375 22.960938 18.675781 22.554688 18.675781 22.128906 C 18.671875 21.707031 18.589844 21.300781 18.425781 20.910156 C 18.261719 20.519531 18.03125 20.175781 17.730469 19.875 C 17.433594 19.578125 17.085938 19.347656 16.695312 19.1875 C 16.304688 19.023438 15.898438 18.941406 15.472656 18.941406 Z M 15.472656 24.632812 C 15.140625 24.632812 14.824219 24.570312 14.515625 24.445312 C 14.207031 24.316406 13.9375 24.136719 13.703125 23.902344 C 13.46875 23.664062 13.285156 23.394531 13.160156 23.085938 C 13.03125 22.78125 12.96875 22.460938 12.96875 22.128906 C 12.96875 21.796875 13.03125 21.476562 13.160156 21.167969 C 13.285156 20.863281 13.46875 20.589844 13.703125 20.355469 C 13.9375 20.121094 14.207031 19.941406 14.515625 19.8125 C 14.824219 19.6875 15.140625 19.621094 15.472656 19.621094 C 15.808594 19.621094 16.125 19.6875 16.433594 19.8125 C 16.742188 19.941406 17.011719 20.121094 17.246094 20.355469 C 17.480469 20.589844 17.664062 20.863281 17.789062 21.167969 C 17.917969 21.476562 17.980469 21.796875 17.980469 22.128906 C 17.980469 22.460938 17.921875 22.785156 17.792969 23.09375 C 17.667969 23.402344 17.488281 23.671875 17.25 23.910156 C 17.015625 24.144531 16.746094 24.328125 16.4375 24.457031 C 16.128906 24.585938 15.808594 24.648438 15.472656 24.648438 Z M 15.472656 24.632812 " fill-opacity="1" fill-rule="nonzero"/></g><g clip-path="url(#1796e2445d)"><g mask="url(#7132cab56c)"><g transform="matrix(1, 0, 0, 1, 4, 0.00000000000000927)"><g clip-path="url(#857e33eddb)"><path fill="#1d2228" d="M 16.941406 132.335938 L 14.136719 131.6875 L 29.460938 65.582031 L 32.269531 66.230469 Z M 16.941406 132.335938 " fill-opacity="1" fill-rule="nonzero"/><path fill="#1d2228" d="M 29.140625 65.066406 L 13.621094 132.007812 L 17.257812 132.867188 L 32.78125 65.90625 Z M 14.65625 131.378906 L 29.78125 66.078125 L 31.75 66.535156 L 16.617188 131.808594 Z M 14.65625 131.378906 " fill-opacity="1" fill-rule="nonzero"/><path fill="#1d2228" d="M 33.269531 66.230469 L 36.070312 65.582031 L 51.402344 131.6875 L 48.59375 132.335938 Z M 33.269531 66.230469 " fill-opacity="1" fill-rule="nonzero"/><path fill="#1d2228" d="M 36.394531 65.066406 L 32.753906 65.925781 L 48.273438 132.867188 L 51.914062 132.007812 Z M 50.886719 131.378906 L 48.917969 131.808594 L 33.785156 66.550781 L 35.753906 66.078125 Z M 50.886719 131.378906 " fill-opacity="1" fill-rule="nonzero"/><g clip-path="url(#d546638e5e)"><path fill="#1d2228" d="M 31.207031 67.585938 L 34.085938 67.585938 L 34.085938 135.464844 L 31.207031 135.464844 Z M 31.207031 67.585938 " fill-opacity="1" fill-rule="nonzero"/></g><g clip-path="url(#4484322886)"><path fill="#1d2228" d="M 30.777344 67.175781 L 30.777344 135.914062 L 34.515625 135.914062 L 34.515625 67.175781 Z M 31.636719 135.054688 L 31.636719 68.035156 L 33.65625 68.035156 L 33.65625 135.054688 Z M 31.636719 135.054688 " fill-opacity="1" fill-rule="nonzero"/></g><path fill="#1d2228" d="M 22.960938 62.03125 L 42.335938 62.03125 L 42.335938 68.027344 L 22.960938 68.027344 Z M 22.960938 62.03125 " fill-opacity="1" fill-rule="nonzero"/><path fill="#1d2228" d="M 22.53125 61.601562 L 22.53125 68.457031 L 42.765625 68.457031 L 42.765625 61.601562 Z M 23.390625 67.597656 L 23.390625 62.460938 L 41.90625 62.460938 L 41.90625 67.597656 Z M 23.390625 67.597656 " fill-opacity="1" fill-rule="nonzero"/><path fill="#1d2228" d="M 63.46875 38.34375 L 79.527344 32.105469 C 79.609375 39.941406 79.6875 47.773438 79.769531 55.605469 L 63.222656 49.132812 Z M 63.46875 38.34375 " fill-opacity="1" fill-rule="nonzero"/><path fill="#1d2228" d="M 79.957031 31.484375 L 63.042969 38.046875 L 62.773438 49.421875 L 80.1875 56.238281 Z M 79.097656 32.734375 L 79.320312 54.972656 L 63.648438 48.84375 L 63.875 38.640625 Z M 79.097656 32.734375 " fill-opacity="1" fill-rule="nonzero"/><path fill="#1d2228" d="M 78.332031 28.992188 L 80.972656 28.992188 L 80.972656 58.722656 L 78.332031 58.722656 Z M 78.332031 28.992188 " fill-opacity="1" fill-rule="nonzero"/><g clip-path="url(#d17cb5edb3)"><path fill="#1d2228" d="M 77.902344 28.5625 L 77.902344 59.152344 L 81.398438 59.152344 L 81.398438 28.5625 Z M 78.761719 58.296875 L 78.761719 29.421875 L 80.542969 29.421875 L 80.542969 58.296875 Z M 78.761719 58.296875 " fill-opacity="1" fill-rule="nonzero"/></g><path fill="#1d2228" d="M 58.75 36.566406 L 65.144531 36.566406 L 65.144531 51.171875 L 58.75 51.171875 Z M 58.75 36.566406 " fill-opacity="1" fill-rule="nonzero"/><path fill="#1d2228" d="M 58.320312 36.113281 L 58.320312 51.601562 L 65.574219 51.601562 L 65.574219 36.136719 Z M 59.179688 50.742188 L 59.179688 36.996094 L 64.714844 36.996094 L 64.714844 50.742188 Z M 59.179688 50.742188 " fill-opacity="1" fill-rule="nonzero"/><path fill="#1d2228" d="M 2.75 23.476562 L 61.015625 23.476562 L 61.015625 64.238281 L 2.75 64.238281 Z M 2.75 23.476562 " fill-opacity="1" fill-rule="nonzero"/><path fill="#1d2228" d="M 2.320312 23.046875 L 2.320312 64.667969 L 61.445312 64.667969 L 61.445312 23.046875 Z M 3.179688 63.808594 L 3.179688 23.90625 L 60.585938 23.90625 L 60.585938 63.808594 Z M 19.90625 60.242188 C 15.691406 56.804688 11.332031 53.550781 6.835938 50.484375 C 6.320312 50.132812 6.835938 49.320312 7.355469 49.667969 C 11.855469 52.734375 16.214844 55.988281 20.429688 59.429688 C 20.90625 59.816406 20.386719 60.636719 19.90625 60.242188 Z M 14.507812 60.136719 C 14.578125 60.023438 14.597656 59.90625 14.570312 59.777344 C 14.542969 59.648438 14.472656 59.546875 14.363281 59.472656 L 8.964844 55.011719 C 8.851562 54.941406 8.730469 54.917969 8.601562 54.949219 C 8.46875 54.976562 8.367188 55.046875 8.296875 55.160156 C 8.226562 55.269531 8.207031 55.390625 8.234375 55.519531 C 8.261719 55.648438 8.328125 55.75 8.4375 55.824219 L 13.84375 60.285156 C 13.957031 60.355469 14.078125 60.378906 14.207031 60.347656 C 14.335938 60.320312 14.4375 60.25 14.507812 60.136719 Z M 14.507812 60.136719 " fill-opacity="1" fill-rule="nonzero"/><g clip-path="url(#3a771e3386)"><path fill="#16272d" d="M 13.902344 0.671875 C 13.070312 0.671875 12.246094 0.753906 11.429688 0.914062 C 10.613281 1.078125 9.824219 1.316406 9.054688 1.636719 C 8.285156 1.953125 7.554688 2.34375 6.863281 2.808594 C 6.171875 3.269531 5.53125 3.792969 4.941406 4.382812 C 4.355469 4.972656 3.828125 5.613281 3.367188 6.304688 C 2.902344 6.996094 2.511719 7.726562 2.195312 8.496094 C 1.875 9.261719 1.636719 10.054688 1.472656 10.871094 C 1.3125 11.6875 1.230469 12.511719 1.230469 13.34375 C 1.230469 14.175781 1.3125 15 1.472656 15.816406 C 1.636719 16.632812 1.875 17.425781 2.195312 18.195312 C 2.511719 18.964844 2.902344 19.695312 3.367188 20.386719 C 3.828125 21.078125 4.355469 21.71875 4.941406 22.304688 C 5.53125 22.894531 6.171875 23.417969 6.863281 23.882812 C 7.554688 24.34375 8.285156 24.734375 9.054688 25.054688 C 9.824219 25.371094 10.613281 25.613281 11.429688 25.773438 C 12.246094 25.9375 13.070312 26.019531 13.902344 26.019531 C 14.734375 26.019531 15.558594 25.9375 16.375 25.773438 C 17.191406 25.613281 17.984375 25.371094 18.753906 25.054688 C 19.523438 24.734375 20.253906 24.34375 20.945312 23.882812 C 21.636719 23.417969 22.277344 22.894531 22.867188 22.304688 C 23.453125 21.71875 23.980469 21.078125 24.441406 20.386719 C 24.902344 19.695312 25.292969 18.964844 25.613281 18.195312 C 25.929688 17.425781 26.171875 16.632812 26.332031 15.816406 C 26.496094 15 26.578125 14.175781 26.578125 13.34375 C 26.578125 12.511719 26.496094 11.6875 26.332031 10.871094 C 26.167969 10.058594 25.929688 9.265625 25.609375 8.496094 C 25.289062 7.726562 24.898438 7 24.4375 6.304688 C 23.976562 5.613281 23.449219 4.976562 22.863281 4.386719 C 22.273438 3.796875 21.632812 3.273438 20.941406 2.8125 C 20.25 2.347656 19.519531 1.957031 18.75 1.640625 C 17.984375 1.320312 17.191406 1.078125 16.375 0.917969 C 15.558594 0.753906 14.734375 0.671875 13.902344 0.671875 Z M 10.414062 13.015625 C 10.414062 13.457031 10.332031 13.878906 10.164062 14.289062 C 9.996094 14.695312 9.753906 15.058594 9.441406 15.371094 C 9.128906 15.683594 8.769531 15.921875 8.363281 16.09375 C 7.957031 16.261719 7.53125 16.347656 7.089844 16.347656 C 6.648438 16.347656 6.222656 16.265625 5.8125 16.09375 C 5.40625 15.925781 5.046875 15.6875 4.734375 15.375 C 4.421875 15.0625 4.179688 14.703125 4.011719 14.292969 C 3.839844 13.886719 3.757812 13.460938 3.757812 13.019531 C 3.757812 12.578125 3.839844 12.152344 4.007812 11.746094 C 4.179688 11.335938 4.417969 10.976562 4.730469 10.664062 C 5.042969 10.351562 5.402344 10.109375 5.8125 9.941406 C 6.21875 9.773438 6.644531 9.6875 7.085938 9.6875 C 7.527344 9.6875 7.949219 9.773438 8.359375 9.941406 C 8.765625 10.113281 9.125 10.351562 9.4375 10.664062 C 9.75 10.976562 9.988281 11.335938 10.160156 11.742188 C 10.328125 12.148438 10.414062 12.574219 10.414062 13.015625 Z M 11.738281 16.550781 C 12.179688 16.550781 12.605469 16.632812 13.015625 16.800781 C 13.421875 16.96875 13.78125 17.210938 14.09375 17.523438 C 14.40625 17.835938 14.648438 18.195312 14.816406 18.601562 C 14.988281 19.011719 15.070312 19.4375 15.074219 19.878906 C 15.074219 20.320312 14.988281 20.746094 14.820312 21.152344 C 14.648438 21.5625 14.410156 21.921875 14.097656 22.234375 C 13.785156 22.546875 13.425781 22.785156 13.015625 22.957031 C 12.609375 23.125 12.183594 23.207031 11.742188 23.207031 C 11.300781 23.207031 10.875 23.125 10.464844 22.953125 C 10.058594 22.785156 9.699219 22.542969 9.386719 22.230469 C 9.074219 21.917969 8.835938 21.558594 8.664062 21.148438 C 8.496094 20.742188 8.414062 20.316406 8.414062 19.875 C 8.414062 19.433594 8.5 19.011719 8.667969 18.601562 C 8.835938 18.195312 9.078125 17.835938 9.386719 17.523438 C 9.699219 17.214844 10.058594 16.972656 10.464844 16.804688 C 10.875 16.632812 11.296875 16.550781 11.738281 16.550781 Z M 12.507812 10.199219 C 12.066406 10.199219 11.640625 10.117188 11.234375 9.945312 C 10.824219 9.777344 10.464844 9.535156 10.152344 9.222656 C 9.839844 8.914062 9.601562 8.550781 9.429688 8.144531 C 9.261719 7.738281 9.179688 7.3125 9.179688 6.871094 C 9.179688 6.429688 9.261719 6.003906 9.429688 5.597656 C 9.601562 5.1875 9.839844 4.828125 10.152344 4.515625 C 10.464844 4.203125 10.824219 3.964844 11.234375 3.792969 C 11.640625 3.625 12.066406 3.539062 12.507812 3.539062 C 12.949219 3.539062 13.375 3.625 13.78125 3.792969 C 14.191406 3.964844 14.550781 4.203125 14.863281 4.515625 C 15.175781 4.828125 15.414062 5.1875 15.582031 5.597656 C 15.753906 6.003906 15.835938 6.429688 15.835938 6.871094 C 15.835938 7.3125 15.753906 7.738281 15.582031 8.144531 C 15.414062 8.550781 15.175781 8.914062 14.863281 9.222656 C 14.550781 9.535156 14.191406 9.777344 13.78125 9.945312 C 13.375 10.117188 12.949219 10.199219 12.507812 10.199219 Z M 19.355469 20.941406 C 18.914062 20.941406 18.488281 20.855469 18.082031 20.6875 C 17.671875 20.519531 17.3125 20.277344 17 19.964844 C 16.6875 19.652344 16.449219 19.292969 16.28125 18.882812 C 16.109375 18.476562 16.027344 18.050781 16.027344 17.609375 C 16.027344 17.167969 16.109375 16.746094 16.28125 16.335938 C 16.449219 15.929688 16.6875 15.570312 17 15.257812 C 17.3125 14.945312 17.671875 14.703125 18.082031 14.535156 C 18.488281 14.367188 18.914062 14.28125 19.355469 14.28125 C 19.796875 14.28125 20.222656 14.367188 20.628906 14.535156 C 21.039062 14.703125 21.398438 14.945312 21.710938 15.257812 C 22.023438 15.570312 22.261719 15.929688 22.433594 16.335938 C 22.601562 16.746094 22.683594 17.167969 22.683594 17.609375 C 22.683594 18.054688 22.597656 18.480469 22.429688 18.886719 C 22.257812 19.296875 22.015625 19.65625 21.699219 19.96875 C 21.386719 20.28125 21.023438 20.523438 20.613281 20.6875 C 20.203125 20.855469 19.777344 20.9375 19.335938 20.9375 Z M 19.898438 12.921875 C 19.457031 12.921875 19.03125 12.839844 18.621094 12.671875 C 18.214844 12.5 17.855469 12.261719 17.542969 11.949219 C 17.230469 11.636719 16.988281 11.277344 16.820312 10.867188 C 16.652344 10.460938 16.566406 10.035156 16.566406 9.59375 C 16.566406 9.152344 16.652344 8.726562 16.820312 8.320312 C 16.988281 7.910156 17.230469 7.550781 17.542969 7.238281 C 17.855469 6.925781 18.214844 6.6875 18.621094 6.519531 C 19.03125 6.347656 19.457031 6.265625 19.898438 6.265625 C 20.339844 6.265625 20.761719 6.347656 21.171875 6.519531 C 21.578125 6.6875 21.9375 6.925781 22.25 7.238281 C 22.5625 7.550781 22.804688 7.910156 22.972656 8.320312 C 23.140625 8.726562 23.226562 9.152344 23.226562 9.59375 C 23.226562 10.035156 23.140625 10.464844 22.96875 10.871094 C 22.800781 11.28125 22.554688 11.640625 22.242188 11.953125 C 21.925781 12.265625 21.566406 12.503906 21.15625 12.671875 C 20.746094 12.839844 20.320312 12.921875 19.875 12.917969 Z M 49.152344 0.671875 C 48.320312 0.671875 47.496094 0.753906 46.679688 0.914062 C 45.863281 1.078125 45.074219 1.316406 44.304688 1.636719 C 43.535156 1.953125 42.804688 2.34375 42.113281 2.808594 C 41.421875 3.269531 40.78125 3.792969 40.191406 4.382812 C 39.605469 4.972656 39.078125 5.613281 38.617188 6.304688 C 38.152344 6.996094 37.761719 7.726562 37.445312 8.496094 C 37.125 9.261719 36.886719 10.054688 36.722656 10.871094 C 36.5625 11.6875 36.480469 12.511719 36.480469 13.34375 C 36.480469 14.175781 36.5625 15 36.722656 15.816406 C 36.886719 16.632812 37.125 17.425781 37.445312 18.195312 C 37.761719 18.964844 38.152344 19.695312 38.617188 20.386719 C 39.078125 21.078125 39.605469 21.71875 40.191406 22.304688 C 40.78125 22.894531 41.421875 23.417969 42.113281 23.882812 C 42.804688 24.34375 43.535156 24.734375 44.304688 25.054688 C 45.074219 25.371094 45.863281 25.613281 46.679688 25.773438 C 47.496094 25.9375 48.320312 26.019531 49.152344 26.019531 C 49.984375 26.019531 50.808594 25.9375 51.625 25.773438 C 52.441406 25.613281 53.234375 25.371094 54.003906 25.054688 C 54.773438 24.734375 55.503906 24.34375 56.195312 23.882812 C 56.886719 23.417969 57.527344 22.894531 58.113281 22.304688 C 58.703125 21.71875 59.230469 21.078125 59.691406 20.386719 C 60.152344 19.695312 60.542969 18.964844 60.863281 18.195312 C 61.179688 17.425781 61.421875 16.632812 61.582031 15.816406 C 61.746094 15 61.828125 14.175781 61.828125 13.34375 C 61.828125 12.511719 61.746094 11.6875 61.582031 10.871094 C 61.417969 10.058594 61.179688 9.265625 60.859375 8.496094 C 60.539062 7.726562 60.148438 7 59.6875 6.304688 C 59.226562 5.613281 58.699219 4.976562 58.113281 4.386719 C 57.523438 3.796875 56.882812 3.273438 56.191406 2.8125 C 55.5 2.347656 54.769531 1.957031 54 1.640625 C 53.234375 1.320312 52.441406 1.078125 51.625 0.917969 C 50.808594 0.753906 49.984375 0.671875 49.152344 0.671875 Z M 45.660156 13.015625 C 45.660156 13.457031 45.578125 13.878906 45.410156 14.289062 C 45.238281 14.695312 45 15.058594 44.6875 15.371094 C 44.375 15.683594 44.015625 15.925781 43.609375 16.09375 C 43.199219 16.261719 42.773438 16.347656 42.332031 16.347656 C 41.890625 16.347656 41.464844 16.261719 41.058594 16.09375 C 40.648438 15.925781 40.289062 15.683594 39.976562 15.371094 C 39.664062 15.058594 39.425781 14.699219 39.253906 14.292969 C 39.085938 13.882812 39 13.457031 39 13.015625 C 39.003906 12.574219 39.085938 12.148438 39.257812 11.742188 C 39.425781 11.332031 39.667969 10.972656 39.980469 10.660156 C 40.292969 10.347656 40.652344 10.109375 41.058594 9.941406 C 41.46875 9.773438 41.894531 9.6875 42.335938 9.6875 C 42.777344 9.6875 43.199219 9.773438 43.609375 9.941406 C 44.015625 10.113281 44.375 10.351562 44.6875 10.664062 C 44.996094 10.976562 45.238281 11.335938 45.40625 11.742188 C 45.574219 12.148438 45.660156 12.574219 45.660156 13.015625 Z M 46.988281 16.550781 C 47.429688 16.550781 47.855469 16.632812 48.261719 16.804688 C 48.671875 16.972656 49.03125 17.210938 49.34375 17.523438 C 49.65625 17.835938 49.894531 18.199219 50.066406 18.605469 C 50.234375 19.015625 50.316406 19.4375 50.316406 19.878906 C 50.316406 20.320312 50.234375 20.746094 50.0625 21.15625 C 49.894531 21.5625 49.652344 21.921875 49.339844 22.234375 C 49.027344 22.546875 48.667969 22.789062 48.261719 22.957031 C 47.851562 23.125 47.425781 23.207031 46.984375 23.207031 C 46.542969 23.207031 46.117188 23.125 45.710938 22.953125 C 45.304688 22.785156 44.945312 22.542969 44.632812 22.230469 C 44.320312 21.917969 44.078125 21.558594 43.910156 21.148438 C 43.742188 20.742188 43.660156 20.316406 43.660156 19.875 C 43.660156 19.433594 43.746094 19.007812 43.914062 18.601562 C 44.082031 18.195312 44.324219 17.835938 44.636719 17.523438 C 44.949219 17.210938 45.308594 16.972656 45.714844 16.800781 C 46.121094 16.632812 46.546875 16.550781 46.988281 16.550781 Z M 47.734375 10.199219 C 47.292969 10.199219 46.871094 10.117188 46.460938 9.945312 C 46.054688 9.777344 45.695312 9.535156 45.382812 9.222656 C 45.070312 8.914062 44.828125 8.550781 44.660156 8.144531 C 44.492188 7.738281 44.40625 7.3125 44.40625 6.871094 C 44.40625 6.429688 44.492188 6.003906 44.660156 5.597656 C 44.828125 5.1875 45.070312 4.828125 45.382812 4.515625 C 45.695312 4.203125 46.054688 3.964844 46.460938 3.792969 C 46.871094 3.625 47.292969 3.539062 47.734375 3.539062 C 48.175781 3.539062 48.601562 3.625 49.011719 3.792969 C 49.417969 3.964844 49.777344 4.203125 50.089844 4.515625 C 50.402344 4.828125 50.644531 5.1875 50.8125 5.597656 C 50.980469 6.003906 51.066406 6.429688 51.066406 6.871094 C 51.066406 7.3125 50.980469 7.738281 50.8125 8.144531 C 50.644531 8.550781 50.402344 8.914062 50.089844 9.222656 C 49.777344 9.535156 49.417969 9.777344 49.011719 9.945312 C 48.601562 10.117188 48.175781 10.199219 47.734375 10.199219 Z M 54.582031 20.941406 C 54.140625 20.941406 53.71875 20.855469 53.308594 20.6875 C 52.902344 20.519531 52.539062 20.28125 52.226562 19.96875 C 51.914062 19.65625 51.675781 19.296875 51.503906 18.886719 C 51.335938 18.480469 51.25 18.054688 51.25 17.613281 C 51.25 17.171875 51.332031 16.746094 51.503906 16.339844 C 51.671875 15.929688 51.910156 15.570312 52.222656 15.257812 C 52.535156 14.945312 52.894531 14.703125 53.304688 14.535156 C 53.710938 14.367188 54.136719 14.28125 54.578125 14.28125 C 55.019531 14.28125 55.445312 14.363281 55.851562 14.535156 C 56.261719 14.703125 56.621094 14.945312 56.933594 15.253906 C 57.246094 15.566406 57.488281 15.929688 57.65625 16.335938 C 57.824219 16.742188 57.910156 17.167969 57.910156 17.609375 C 57.90625 18.050781 57.824219 18.476562 57.652344 18.882812 C 57.484375 19.289062 57.246094 19.648438 56.933594 19.960938 C 56.621094 20.269531 56.261719 20.511719 55.855469 20.679688 C 55.449219 20.847656 55.023438 20.933594 54.582031 20.9375 Z M 55.125 12.921875 C 54.683594 12.925781 54.257812 12.839844 53.851562 12.671875 C 53.441406 12.503906 53.082031 12.261719 52.769531 11.949219 C 52.457031 11.640625 52.214844 11.277344 52.046875 10.871094 C 51.875 10.464844 51.792969 10.039062 51.792969 9.597656 C 51.792969 9.15625 51.875 8.730469 52.042969 8.320312 C 52.210938 7.914062 52.453125 7.554688 52.765625 7.242188 C 53.078125 6.929688 53.4375 6.6875 53.84375 6.519531 C 54.253906 6.347656 54.679688 6.265625 55.121094 6.265625 C 55.5625 6.265625 55.984375 6.347656 56.394531 6.515625 C 56.800781 6.6875 57.164062 6.925781 57.476562 7.238281 C 57.785156 7.550781 58.027344 7.910156 58.195312 8.320312 C 58.367188 8.726562 58.449219 9.152344 58.449219 9.59375 C 58.449219 10.035156 58.363281 10.457031 58.195312 10.863281 C 58.027344 11.273438 57.785156 11.632812 57.472656 11.941406 C 57.164062 12.253906 56.804688 12.496094 56.394531 12.664062 C 55.988281 12.832031 55.566406 12.917969 55.125 12.917969 Z M 55.125 12.921875 " fill-opacity="1" fill-rule="nonzero"/></g><g clip-path="url(#2fa92abef8)"><path fill="#1d2228" d="M 11.738281 16.035156 C 11.230469 16.035156 10.738281 16.132812 10.269531 16.328125 C 9.796875 16.519531 9.382812 16.796875 9.023438 17.160156 C 8.664062 17.519531 8.386719 17.933594 8.191406 18.40625 C 7.996094 18.875 7.898438 19.367188 7.898438 19.875 C 7.898438 20.382812 7.996094 20.875 8.191406 21.34375 C 8.386719 21.816406 8.664062 22.230469 9.023438 22.589844 C 9.382812 22.949219 9.796875 23.226562 10.269531 23.421875 C 10.738281 23.617188 11.230469 23.714844 11.738281 23.714844 C 12.246094 23.714844 12.738281 23.617188 13.207031 23.421875 C 13.679688 23.226562 14.09375 22.949219 14.453125 22.589844 C 14.816406 22.230469 15.09375 21.816406 15.285156 21.34375 C 15.480469 20.875 15.578125 20.382812 15.578125 19.875 C 15.578125 19.367188 15.480469 18.875 15.285156 18.40625 C 15.089844 17.933594 14.8125 17.519531 14.453125 17.160156 C 14.09375 16.800781 13.679688 16.523438 13.207031 16.328125 C 12.738281 16.132812 12.246094 16.035156 11.738281 16.035156 Z M 11.738281 22.882812 C 11.339844 22.882812 10.957031 22.804688 10.585938 22.652344 C 10.21875 22.5 9.894531 22.28125 9.613281 22 C 9.332031 21.71875 9.113281 21.394531 8.960938 21.027344 C 8.808594 20.65625 8.730469 20.273438 8.730469 19.875 C 8.730469 19.476562 8.808594 19.09375 8.960938 18.722656 C 9.113281 18.355469 9.332031 18.03125 9.613281 17.75 C 9.894531 17.464844 10.21875 17.25 10.585938 17.097656 C 10.957031 16.945312 11.339844 16.867188 11.738281 16.867188 C 12.136719 16.867188 12.519531 16.945312 12.890625 17.097656 C 13.257812 17.25 13.582031 17.464844 13.863281 17.75 C 14.148438 18.03125 14.363281 18.355469 14.515625 18.722656 C 14.667969 19.09375 14.746094 19.476562 14.746094 19.875 C 14.746094 20.273438 14.667969 20.65625 14.515625 21.027344 C 14.363281 21.394531 14.148438 21.71875 13.863281 22 C 13.582031 22.28125 13.257812 22.5 12.890625 22.652344 C 12.519531 22.804688 12.136719 22.882812 11.738281 22.882812 Z M 54.582031 13.765625 C 54.074219 13.765625 53.585938 13.863281 53.113281 14.058594 C 52.644531 14.253906 52.226562 14.53125 51.867188 14.890625 C 51.507812 15.25 51.230469 15.664062 51.035156 16.136719 C 50.839844 16.605469 50.742188 17.097656 50.742188 17.605469 C 50.742188 18.117188 50.839844 18.605469 51.035156 19.074219 C 51.230469 19.546875 51.507812 19.960938 51.867188 20.320312 C 52.226562 20.683594 52.644531 20.960938 53.113281 21.15625 C 53.585938 21.347656 54.074219 21.445312 54.582031 21.445312 C 55.09375 21.445312 55.582031 21.347656 56.054688 21.15625 C 56.523438 20.960938 56.941406 20.683594 57.300781 20.320312 C 57.660156 19.960938 57.9375 19.546875 58.132812 19.074219 C 58.328125 18.605469 58.425781 18.117188 58.425781 17.605469 C 58.425781 17.097656 58.328125 16.609375 58.132812 16.136719 C 57.9375 15.667969 57.660156 15.25 57.296875 14.890625 C 56.9375 14.53125 56.523438 14.253906 56.054688 14.058594 C 55.582031 13.863281 55.09375 13.765625 54.582031 13.765625 Z M 54.582031 20.613281 C 54.183594 20.613281 53.800781 20.539062 53.433594 20.382812 C 53.066406 20.230469 52.738281 20.015625 52.457031 19.734375 C 52.175781 19.449219 51.957031 19.125 51.804688 18.757812 C 51.652344 18.390625 51.578125 18.003906 51.578125 17.605469 C 51.578125 17.207031 51.652344 16.824219 51.804688 16.457031 C 51.957031 16.085938 52.175781 15.761719 52.457031 15.480469 C 52.738281 15.199219 53.066406 14.980469 53.433594 14.828125 C 53.800781 14.675781 54.183594 14.597656 54.582031 14.597656 C 54.984375 14.597656 55.367188 14.675781 55.734375 14.828125 C 56.101562 14.980469 56.429688 15.199219 56.710938 15.480469 C 56.992188 15.761719 57.210938 16.085938 57.363281 16.457031 C 57.515625 16.824219 57.589844 17.207031 57.589844 17.605469 C 57.589844 18.003906 57.515625 18.390625 57.363281 18.757812 C 57.210938 19.125 56.992188 19.449219 56.710938 19.734375 C 56.429688 20.015625 56.101562 20.230469 55.734375 20.382812 C 55.367188 20.539062 54.984375 20.613281 54.582031 20.613281 Z M 10.925781 13.015625 C 10.925781 12.503906 10.828125 12.015625 10.632812 11.542969 C 10.4375 11.074219 10.160156 10.65625 9.800781 10.296875 C 9.441406 9.9375 9.027344 9.660156 8.554688 9.464844 C 8.085938 9.269531 7.59375 9.171875 7.085938 9.171875 C 6.578125 9.171875 6.085938 9.269531 5.617188 9.464844 C 5.144531 9.660156 4.730469 9.9375 4.371094 10.296875 C 4.011719 10.65625 3.730469 11.074219 3.539062 11.542969 C 3.34375 12.015625 3.246094 12.503906 3.246094 13.015625 C 3.246094 13.523438 3.34375 14.011719 3.539062 14.484375 C 3.730469 14.953125 4.011719 15.371094 4.371094 15.730469 C 4.730469 16.089844 5.144531 16.367188 5.617188 16.5625 C 6.085938 16.757812 6.578125 16.855469 7.085938 16.855469 C 7.59375 16.855469 8.085938 16.757812 8.554688 16.5625 C 9.023438 16.367188 9.441406 16.089844 9.800781 15.726562 C 10.160156 15.367188 10.4375 14.953125 10.632812 14.484375 C 10.828125 14.011719 10.925781 13.523438 10.925781 13.015625 Z M 7.085938 16.019531 C 6.6875 16.019531 6.304688 15.945312 5.933594 15.792969 C 5.566406 15.640625 5.242188 15.421875 4.960938 15.140625 C 4.675781 14.859375 4.460938 14.53125 4.308594 14.164062 C 4.15625 13.796875 4.078125 13.414062 4.078125 13.015625 C 4.078125 12.613281 4.15625 12.230469 4.308594 11.863281 C 4.460938 11.496094 4.675781 11.167969 4.960938 10.886719 C 5.242188 10.605469 5.566406 10.386719 5.933594 10.234375 C 6.304688 10.082031 6.6875 10.007812 7.085938 10.007812 C 7.484375 10.007812 7.867188 10.082031 8.238281 10.234375 C 8.605469 10.386719 8.929688 10.605469 9.210938 10.886719 C 9.496094 11.167969 9.710938 11.496094 9.863281 11.863281 C 10.015625 12.230469 10.09375 12.613281 10.09375 13.015625 C 10.09375 13.414062 10.015625 13.796875 9.863281 14.164062 C 9.710938 14.53125 9.496094 14.859375 9.210938 15.140625 C 8.929688 15.421875 8.605469 15.640625 8.238281 15.792969 C 7.867188 15.945312 7.484375 16.019531 7.085938 16.019531 Z M 12.507812 10.710938 C 13.015625 10.707031 13.503906 10.605469 13.972656 10.410156 C 14.441406 10.210938 14.855469 9.933594 15.210938 9.570312 C 15.570312 9.210938 15.84375 8.792969 16.039062 8.320312 C 16.230469 7.851562 16.324219 7.363281 16.324219 6.851562 C 16.320312 6.34375 16.222656 5.855469 16.023438 5.386719 C 15.828125 4.917969 15.550781 4.503906 15.1875 4.144531 C 14.828125 3.785156 14.414062 3.511719 13.941406 3.316406 C 13.472656 3.125 12.980469 3.027344 12.472656 3.03125 C 11.964844 3.03125 11.476562 3.128906 11.007812 3.324219 C 10.535156 3.519531 10.121094 3.796875 9.761719 4.15625 C 9.402344 4.515625 9.128906 4.933594 8.933594 5.402344 C 8.738281 5.871094 8.640625 6.363281 8.640625 6.871094 C 8.644531 7.378906 8.746094 7.871094 8.941406 8.34375 C 9.140625 8.8125 9.421875 9.226562 9.78125 9.585938 C 10.144531 9.949219 10.5625 10.222656 11.035156 10.417969 C 11.503906 10.613281 11.996094 10.710938 12.507812 10.710938 Z M 12.507812 3.867188 C 12.90625 3.867188 13.289062 3.945312 13.660156 4.097656 C 14.027344 4.25 14.351562 4.464844 14.632812 4.75 C 14.917969 5.03125 15.132812 5.355469 15.285156 5.722656 C 15.4375 6.09375 15.515625 6.476562 15.515625 6.875 C 15.515625 7.273438 15.4375 7.65625 15.285156 8.023438 C 15.132812 8.394531 14.917969 8.71875 14.632812 9 C 14.351562 9.28125 14.027344 9.5 13.660156 9.652344 C 13.289062 9.804688 12.90625 9.882812 12.507812 9.882812 C 12.109375 9.882812 11.726562 9.804688 11.355469 9.652344 C 10.988281 9.5 10.664062 9.28125 10.382812 9 C 10.097656 8.71875 9.882812 8.394531 9.730469 8.023438 C 9.578125 7.65625 9.5 7.273438 9.5 6.875 C 9.5 6.476562 9.578125 6.09375 9.730469 5.722656 C 9.882812 5.355469 10.097656 5.03125 10.382812 4.75 C 10.664062 4.464844 10.988281 4.25 11.355469 4.097656 C 11.726562 3.945312 12.109375 3.867188 12.507812 3.867188 Z M 49.152344 0.347656 C 48.300781 0.347656 47.457031 0.433594 46.617188 0.597656 C 45.78125 0.765625 44.96875 1.011719 44.179688 1.339844 C 43.390625 1.664062 42.644531 2.066406 41.933594 2.539062 C 41.222656 3.011719 40.566406 3.550781 39.964844 4.15625 C 39.359375 4.757812 38.820312 5.414062 38.347656 6.125 C 37.875 6.832031 37.472656 7.582031 37.148438 8.371094 C 36.820312 9.160156 36.574219 9.972656 36.40625 10.808594 C 36.242188 11.644531 36.15625 12.492188 36.15625 13.34375 C 36.15625 14.199219 36.242188 15.042969 36.40625 15.878906 C 36.574219 16.714844 36.820312 17.53125 37.148438 18.316406 C 37.472656 19.105469 37.875 19.855469 38.347656 20.566406 C 38.820312 21.273438 39.359375 21.929688 39.964844 22.535156 C 40.566406 23.136719 41.222656 23.675781 41.933594 24.148438 C 42.644531 24.625 43.390625 25.023438 44.179688 25.351562 C 44.96875 25.675781 45.78125 25.925781 46.617188 26.089844 C 47.457031 26.257812 48.300781 26.339844 49.152344 26.339844 C 50.007812 26.339844 50.851562 26.257812 51.6875 26.089844 C 52.527344 25.925781 53.339844 25.675781 54.125 25.351562 C 54.914062 25.023438 55.664062 24.625 56.375 24.148438 C 57.082031 23.675781 57.738281 23.136719 58.34375 22.535156 C 58.945312 21.929688 59.484375 21.273438 59.960938 20.566406 C 60.433594 19.855469 60.832031 19.105469 61.160156 18.316406 C 61.488281 17.53125 61.734375 16.714844 61.898438 15.878906 C 62.066406 15.042969 62.148438 14.199219 62.148438 13.34375 C 62.148438 12.492188 62.066406 11.648438 61.898438 10.808594 C 61.730469 9.972656 61.484375 9.160156 61.15625 8.375 C 60.828125 7.585938 60.429688 6.835938 59.957031 6.128906 C 59.480469 5.417969 58.941406 4.761719 58.339844 4.160156 C 57.734375 3.554688 57.078125 3.015625 56.371094 2.542969 C 55.660156 2.070312 54.914062 1.667969 54.125 1.339844 C 53.335938 1.015625 52.523438 0.769531 51.6875 0.601562 C 50.851562 0.433594 50.007812 0.347656 49.152344 0.347656 Z M 49.152344 25.507812 C 48.355469 25.507812 47.5625 25.429688 46.78125 25.273438 C 45.996094 25.117188 45.238281 24.886719 44.5 24.582031 C 43.761719 24.277344 43.058594 23.902344 42.394531 23.460938 C 41.730469 23.015625 41.117188 22.511719 40.550781 21.945312 C 39.988281 21.382812 39.484375 20.769531 39.039062 20.105469 C 38.59375 19.441406 38.21875 18.738281 37.914062 18 C 37.609375 17.265625 37.378906 16.503906 37.222656 15.71875 C 37.066406 14.9375 36.988281 14.144531 36.988281 13.347656 C 36.988281 12.546875 37.066406 11.757812 37.21875 10.972656 C 37.375 10.191406 37.605469 9.429688 37.910156 8.691406 C 38.21875 7.953125 38.59375 7.253906 39.035156 6.589844 C 39.480469 5.925781 39.984375 5.3125 40.546875 4.746094 C 41.113281 4.179688 41.726562 3.675781 42.390625 3.234375 C 43.054688 2.789062 43.753906 2.414062 44.492188 2.109375 C 45.230469 1.804688 45.992188 1.570312 46.773438 1.417969 C 47.558594 1.261719 48.347656 1.183594 49.148438 1.183594 C 49.945312 1.183594 50.738281 1.261719 51.519531 1.414062 C 52.304688 1.570312 53.066406 1.800781 53.800781 2.109375 C 54.539062 2.414062 55.242188 2.789062 55.90625 3.230469 C 56.570312 3.675781 57.183594 4.179688 57.75 4.742188 C 58.3125 5.308594 58.816406 5.921875 59.261719 6.585938 C 59.707031 7.25 60.078125 7.953125 60.386719 8.691406 C 60.691406 9.425781 60.921875 10.1875 61.078125 10.972656 C 61.234375 11.753906 61.3125 12.546875 61.3125 13.34375 C 61.3125 14.144531 61.230469 14.933594 61.074219 15.714844 C 60.917969 16.5 60.6875 17.257812 60.382812 17.996094 C 60.078125 18.734375 59.703125 19.433594 59.257812 20.097656 C 58.816406 20.761719 58.3125 21.375 57.746094 21.9375 C 57.183594 22.503906 56.570312 23.007812 55.90625 23.453125 C 55.242188 23.894531 54.542969 24.269531 53.804688 24.578125 C 53.066406 24.882812 52.308594 25.113281 51.523438 25.269531 C 50.742188 25.425781 49.953125 25.503906 49.152344 25.507812 Z M 16.035156 9.609375 C 16.035156 10.121094 16.132812 10.609375 16.328125 11.082031 C 16.523438 11.550781 16.800781 11.96875 17.160156 12.328125 C 17.519531 12.6875 17.933594 12.964844 18.40625 13.160156 C 18.875 13.355469 19.367188 13.453125 19.875 13.453125 C 20.386719 13.453125 20.875 13.355469 21.34375 13.160156 C 21.816406 12.964844 22.230469 12.6875 22.589844 12.328125 C 22.953125 11.96875 23.230469 11.550781 23.425781 11.082031 C 23.617188 10.609375 23.714844 10.121094 23.714844 9.609375 C 23.714844 9.101562 23.617188 8.613281 23.425781 8.140625 C 23.230469 7.671875 22.953125 7.253906 22.589844 6.894531 C 22.230469 6.535156 21.816406 6.257812 21.34375 6.0625 C 20.875 5.867188 20.386719 5.769531 19.875 5.769531 C 19.367188 5.769531 18.878906 5.867188 18.410156 6.0625 C 17.941406 6.253906 17.527344 6.53125 17.167969 6.890625 C 16.808594 7.246094 16.53125 7.660156 16.335938 8.128906 C 16.136719 8.59375 16.039062 9.082031 16.035156 9.589844 Z M 22.882812 9.609375 C 22.882812 10.011719 22.804688 10.394531 22.652344 10.761719 C 22.5 11.128906 22.285156 11.457031 22 11.738281 C 21.71875 12.019531 21.394531 12.238281 21.027344 12.390625 C 20.65625 12.542969 20.273438 12.617188 19.875 12.617188 C 19.476562 12.617188 19.09375 12.542969 18.726562 12.390625 C 18.355469 12.238281 18.03125 12.019531 17.75 11.738281 C 17.46875 11.457031 17.25 11.128906 17.097656 10.761719 C 16.945312 10.394531 16.867188 10.011719 16.867188 9.609375 C 16.867188 9.210938 16.945312 8.828125 17.097656 8.460938 C 17.25 8.09375 17.46875 7.765625 17.75 7.484375 C 18.03125 7.203125 18.355469 6.984375 18.726562 6.832031 C 19.09375 6.679688 19.476562 6.605469 19.875 6.605469 C 20.273438 6.605469 20.65625 6.679688 21.019531 6.832031 C 21.386719 6.980469 21.710938 7.199219 21.996094 7.476562 C 22.277344 7.757812 22.492188 8.078125 22.648438 8.445312 C 22.800781 8.8125 22.878906 9.191406 22.882812 9.589844 Z M 46.175781 13.046875 C 46.175781 12.539062 46.078125 12.050781 45.882812 11.578125 C 45.6875 11.109375 45.410156 10.691406 45.050781 10.332031 C 44.691406 9.972656 44.277344 9.695312 43.804688 9.5 C 43.335938 9.304688 42.84375 9.207031 42.335938 9.207031 C 41.828125 9.207031 41.335938 9.304688 40.867188 9.5 C 40.394531 9.695312 39.980469 9.972656 39.621094 10.332031 C 39.257812 10.691406 38.980469 11.109375 38.789062 11.578125 C 38.59375 12.050781 38.496094 12.539062 38.496094 13.046875 C 38.496094 13.558594 38.59375 14.046875 38.789062 14.519531 C 38.980469 14.988281 39.257812 15.402344 39.621094 15.765625 C 39.980469 16.125 40.394531 16.402344 40.867188 16.597656 C 41.335938 16.792969 41.828125 16.890625 42.335938 16.890625 C 42.847656 16.886719 43.339844 16.789062 43.8125 16.59375 C 44.285156 16.394531 44.703125 16.113281 45.0625 15.75 C 45.421875 15.386719 45.699219 14.96875 45.894531 14.492188 C 46.085938 14.019531 46.179688 13.527344 46.175781 13.015625 Z M 42.335938 16.054688 C 41.9375 16.054688 41.554688 15.980469 41.183594 15.828125 C 40.816406 15.675781 40.492188 15.457031 40.210938 15.175781 C 39.925781 14.890625 39.710938 14.566406 39.558594 14.199219 C 39.40625 13.832031 39.328125 13.445312 39.328125 13.046875 C 39.328125 12.648438 39.40625 12.265625 39.558594 11.898438 C 39.710938 11.527344 39.925781 11.203125 40.210938 10.921875 C 40.492188 10.640625 40.816406 10.421875 41.183594 10.269531 C 41.554688 10.117188 41.9375 10.039062 42.335938 10.039062 C 42.734375 10.039062 43.117188 10.117188 43.488281 10.269531 C 43.855469 10.421875 44.179688 10.640625 44.460938 10.921875 C 44.742188 11.203125 44.960938 11.527344 45.113281 11.898438 C 45.265625 12.265625 45.34375 12.648438 45.34375 13.046875 C 45.339844 13.445312 45.257812 13.824219 45.105469 14.1875 C 44.949219 14.554688 44.730469 14.875 44.449219 15.152344 C 44.167969 15.429688 43.84375 15.644531 43.480469 15.796875 C 43.113281 15.945312 42.730469 16.019531 42.335938 16.019531 Z M 55.125 13.476562 C 55.632812 13.476562 56.125 13.378906 56.59375 13.183594 C 57.066406 12.992188 57.480469 12.714844 57.839844 12.351562 C 58.199219 11.992188 58.480469 11.578125 58.671875 11.105469 C 58.867188 10.636719 58.964844 10.144531 58.964844 9.636719 C 58.964844 9.128906 58.867188 8.636719 58.671875 8.167969 C 58.480469 7.695312 58.199219 7.28125 57.839844 6.921875 C 57.480469 6.5625 57.066406 6.285156 56.59375 6.089844 C 56.125 5.894531 55.632812 5.796875 55.125 5.796875 C 54.617188 5.796875 54.125 5.894531 53.65625 6.089844 C 53.183594 6.285156 52.769531 6.5625 52.410156 6.921875 C 52.050781 7.28125 51.773438 7.695312 51.578125 8.167969 C 51.382812 8.636719 51.285156 9.128906 51.285156 9.636719 C 51.292969 10.140625 51.394531 10.625 51.589844 11.089844 C 51.789062 11.554688 52.066406 11.964844 52.425781 12.320312 C 52.785156 12.675781 53.199219 12.949219 53.667969 13.140625 C 54.132812 13.332031 54.621094 13.429688 55.125 13.429688 Z M 55.125 6.632812 C 55.523438 6.632812 55.90625 6.710938 56.277344 6.863281 C 56.644531 7.015625 56.96875 7.234375 57.25 7.515625 C 57.535156 7.796875 57.75 8.121094 57.902344 8.492188 C 58.054688 8.859375 58.132812 9.242188 58.132812 9.640625 C 58.132812 10.039062 58.054688 10.421875 57.902344 10.792969 C 57.75 11.160156 57.535156 11.484375 57.25 11.769531 C 56.96875 12.050781 56.644531 12.265625 56.277344 12.417969 C 55.90625 12.570312 55.523438 12.648438 55.125 12.648438 C 54.726562 12.648438 54.34375 12.570312 53.972656 12.417969 C 53.605469 12.265625 53.28125 12.050781 53 11.769531 C 52.714844 11.484375 52.5 11.160156 52.347656 10.792969 C 52.195312 10.421875 52.117188 10.039062 52.117188 9.640625 C 52.113281 9.238281 52.183594 8.851562 52.332031 8.476562 C 52.484375 8.101562 52.699219 7.769531 52.980469 7.484375 C 53.265625 7.195312 53.589844 6.976562 53.964844 6.820312 C 54.335938 6.664062 54.722656 6.585938 55.125 6.585938 Z M 13.902344 0.347656 C 13.050781 0.347656 12.207031 0.433594 11.367188 0.597656 C 10.53125 0.765625 9.71875 1.011719 8.929688 1.339844 C 8.140625 1.664062 7.394531 2.066406 6.683594 2.539062 C 5.972656 3.011719 5.316406 3.550781 4.714844 4.15625 C 4.109375 4.757812 3.574219 5.414062 3.097656 6.125 C 2.625 6.832031 2.222656 7.582031 1.898438 8.371094 C 1.570312 9.160156 1.324219 9.972656 1.15625 10.808594 C 0.992188 11.644531 0.90625 12.492188 0.90625 13.34375 C 0.90625 14.199219 0.992188 15.042969 1.15625 15.878906 C 1.324219 16.714844 1.570312 17.53125 1.898438 18.316406 C 2.222656 19.105469 2.625 19.855469 3.097656 20.566406 C 3.574219 21.273438 4.109375 21.929688 4.714844 22.535156 C 5.316406 23.136719 5.972656 23.675781 6.683594 24.148438 C 7.394531 24.625 8.140625 25.023438 8.929688 25.351562 C 9.71875 25.675781 10.53125 25.925781 11.367188 26.089844 C 12.207031 26.257812 13.050781 26.339844 13.902344 26.339844 C 14.757812 26.339844 15.601562 26.257812 16.4375 26.089844 C 17.277344 25.925781 18.089844 25.675781 18.878906 25.351562 C 19.664062 25.023438 20.414062 24.625 21.125 24.148438 C 21.832031 23.675781 22.488281 23.136719 23.09375 22.535156 C 23.695312 21.929688 24.234375 21.273438 24.710938 20.566406 C 25.183594 19.855469 25.582031 19.105469 25.910156 18.316406 C 26.238281 17.53125 26.484375 16.714844 26.648438 15.878906 C 26.816406 15.042969 26.898438 14.199219 26.898438 13.34375 C 26.898438 12.492188 26.816406 11.648438 26.648438 10.808594 C 26.480469 9.972656 26.234375 9.160156 25.90625 8.375 C 25.582031 7.585938 25.179688 6.835938 24.707031 6.128906 C 24.230469 5.417969 23.691406 4.761719 23.089844 4.160156 C 22.484375 3.554688 21.828125 3.015625 21.121094 2.542969 C 20.410156 2.070312 19.664062 1.667969 18.875 1.339844 C 18.085938 1.015625 17.273438 0.769531 16.4375 0.601562 C 15.601562 0.433594 14.757812 0.347656 13.902344 0.347656 Z M 13.902344 25.507812 C 13.105469 25.507812 12.3125 25.429688 11.53125 25.273438 C 10.746094 25.117188 9.988281 24.886719 9.25 24.582031 C 8.511719 24.277344 7.808594 23.902344 7.144531 23.460938 C 6.480469 23.015625 5.867188 22.511719 5.300781 21.945312 C 4.738281 21.382812 4.234375 20.769531 3.789062 20.105469 C 3.34375 19.441406 2.96875 18.738281 2.664062 18 C 2.359375 17.265625 2.128906 16.503906 1.972656 15.71875 C 1.816406 14.9375 1.738281 14.144531 1.738281 13.347656 C 1.738281 12.546875 1.816406 11.757812 1.96875 10.972656 C 2.125 10.191406 2.355469 9.429688 2.660156 8.691406 C 2.96875 7.953125 3.34375 7.253906 3.785156 6.589844 C 4.230469 5.925781 4.734375 5.3125 5.296875 4.746094 C 5.863281 4.179688 6.476562 3.675781 7.140625 3.234375 C 7.804688 2.789062 8.503906 2.414062 9.242188 2.109375 C 9.980469 1.804688 10.742188 1.570312 11.523438 1.417969 C 12.308594 1.261719 13.097656 1.183594 13.898438 1.183594 C 14.695312 1.183594 15.488281 1.261719 16.269531 1.414062 C 17.054688 1.570312 17.816406 1.800781 18.554688 2.109375 C 19.289062 2.414062 19.992188 2.789062 20.65625 3.230469 C 21.320312 3.675781 21.933594 4.179688 22.5 4.742188 C 23.0625 5.308594 23.566406 5.921875 24.011719 6.585938 C 24.457031 7.25 24.832031 7.953125 25.136719 8.691406 C 25.441406 9.425781 25.671875 10.1875 25.828125 10.972656 C 25.984375 11.753906 26.0625 12.546875 26.0625 13.34375 C 26.0625 14.144531 25.984375 14.933594 25.828125 15.714844 C 25.671875 16.5 25.441406 17.257812 25.132812 17.996094 C 24.828125 18.734375 24.453125 19.433594 24.011719 20.097656 C 23.566406 20.761719 23.0625 21.375 22.5 21.941406 C 21.933594 22.503906 21.320312 23.007812 20.65625 23.453125 C 19.992188 23.898438 19.292969 24.273438 18.554688 24.578125 C 17.816406 24.882812 17.058594 25.113281 16.277344 25.269531 C 15.492188 25.425781 14.703125 25.507812 13.902344 25.507812 Z M 46.984375 16.035156 C 46.476562 16.035156 45.984375 16.132812 45.515625 16.328125 C 45.042969 16.519531 44.628906 16.796875 44.269531 17.160156 C 43.90625 17.519531 43.628906 17.933594 43.4375 18.40625 C 43.242188 18.875 43.144531 19.367188 43.144531 19.875 C 43.144531 20.382812 43.242188 20.875 43.4375 21.34375 C 43.628906 21.816406 43.90625 22.230469 44.269531 22.589844 C 44.628906 22.949219 45.042969 23.226562 45.515625 23.421875 C 45.984375 23.617188 46.476562 23.714844 46.984375 23.714844 C 47.492188 23.714844 47.984375 23.617188 48.453125 23.421875 C 48.925781 23.226562 49.339844 22.949219 49.699219 22.589844 C 50.058594 22.230469 50.335938 21.816406 50.53125 21.34375 C 50.726562 20.875 50.824219 20.382812 50.824219 19.875 C 50.820312 19.367188 50.722656 18.878906 50.527344 18.410156 C 50.332031 17.941406 50.054688 17.527344 49.695312 17.167969 C 49.335938 16.808594 48.921875 16.53125 48.453125 16.335938 C 47.984375 16.136719 47.496094 16.039062 46.988281 16.035156 Z M 46.984375 22.882812 C 46.585938 22.882812 46.203125 22.804688 45.832031 22.652344 C 45.464844 22.5 45.140625 22.28125 44.859375 22 C 44.574219 21.71875 44.359375 21.394531 44.207031 21.027344 C 44.054688 20.65625 43.976562 20.273438 43.976562 19.875 C 43.976562 19.476562 44.054688 19.09375 44.207031 18.722656 C 44.359375 18.355469 44.574219 18.03125 44.859375 17.75 C 45.140625 17.464844 45.464844 17.25 45.832031 17.097656 C 46.203125 16.945312 46.585938 16.867188 46.984375 16.867188 C 47.382812 16.867188 47.765625 16.945312 48.136719 17.097656 C 48.503906 17.25 48.828125 17.464844 49.109375 17.75 C 49.390625 18.03125 49.609375 18.355469 49.761719 18.722656 C 49.914062 19.09375 49.992188 19.476562 49.992188 19.875 C 49.992188 20.273438 49.914062 20.65625 49.761719 21.023438 C 49.609375 21.394531 49.394531 21.71875 49.113281 22 C 48.832031 22.28125 48.503906 22.5 48.136719 22.652344 C 47.769531 22.804688 47.386719 22.882812 46.988281 22.882812 Z M 47.734375 10.710938 C 48.246094 10.710938 48.734375 10.613281 49.207031 10.417969 C 49.675781 10.222656 50.089844 9.945312 50.453125 9.585938 C 50.8125 9.226562 51.089844 8.8125 51.285156 8.339844 C 51.480469 7.871094 51.578125 7.378906 51.578125 6.871094 C 51.578125 6.359375 51.480469 5.871094 51.285156 5.402344 C 51.089844 4.929688 50.8125 4.515625 50.453125 4.15625 C 50.089844 3.792969 49.675781 3.515625 49.207031 3.320312 C 48.734375 3.125 48.246094 3.03125 47.734375 3.03125 C 47.226562 3.03125 46.738281 3.125 46.265625 3.320312 C 45.796875 3.515625 45.378906 3.792969 45.019531 4.15625 C 44.660156 4.515625 44.382812 4.929688 44.1875 5.402344 C 43.992188 5.871094 43.894531 6.359375 43.894531 6.871094 C 43.894531 7.378906 43.992188 7.867188 44.1875 8.339844 C 44.382812 8.808594 44.660156 9.226562 45.019531 9.585938 C 45.382812 9.945312 45.796875 10.222656 46.265625 10.417969 C 46.738281 10.613281 47.226562 10.710938 47.734375 10.710938 Z M 47.734375 3.867188 C 48.132812 3.867188 48.519531 3.945312 48.886719 4.097656 C 49.253906 4.25 49.582031 4.464844 49.863281 4.75 C 50.144531 5.03125 50.363281 5.355469 50.515625 5.722656 C 50.667969 6.09375 50.742188 6.476562 50.742188 6.875 C 50.742188 7.273438 50.667969 7.65625 50.515625 8.023438 C 50.363281 8.394531 50.144531 8.71875 49.863281 9 C 49.582031 9.28125 49.253906 9.5 48.886719 9.652344 C 48.519531 9.804688 48.132812 9.882812 47.734375 9.882812 C 47.335938 9.882812 46.953125 9.804688 46.585938 9.652344 C 46.214844 9.5 45.890625 9.28125 45.609375 9 C 45.328125 8.71875 45.109375 8.394531 44.957031 8.023438 C 44.804688 7.65625 44.730469 7.273438 44.730469 6.875 C 44.730469 6.476562 44.804688 6.09375 44.957031 5.722656 C 45.109375 5.355469 45.328125 5.03125 45.609375 4.75 C 45.890625 4.464844 46.214844 4.25 46.585938 4.097656 C 46.953125 3.945312 47.335938 3.867188 47.734375 3.867188 Z M 19.335938 13.75 C 18.824219 13.75 18.335938 13.847656 17.863281 14.039062 C 17.394531 14.234375 16.976562 14.511719 16.617188 14.875 C 16.257812 15.234375 15.980469 15.648438 15.785156 16.121094 C 15.589844 16.589844 15.492188 17.078125 15.492188 17.589844 C 15.492188 18.097656 15.589844 18.589844 15.785156 19.058594 C 15.980469 19.53125 16.257812 19.945312 16.617188 20.304688 C 16.976562 20.664062 17.394531 20.941406 17.863281 21.136719 C 18.335938 21.332031 18.824219 21.429688 19.335938 21.429688 C 19.84375 21.429688 20.332031 21.332031 20.804688 21.136719 C 21.273438 20.941406 21.691406 20.664062 22.050781 20.304688 C 22.410156 19.945312 22.6875 19.53125 22.882812 19.058594 C 23.078125 18.589844 23.175781 18.097656 23.175781 17.589844 C 23.171875 17.082031 23.074219 16.59375 22.875 16.125 C 22.679688 15.65625 22.402344 15.242188 22.042969 14.886719 C 21.683594 14.527344 21.269531 14.25 20.800781 14.058594 C 20.332031 13.863281 19.84375 13.765625 19.335938 13.765625 Z M 19.335938 20.597656 C 18.933594 20.597656 18.550781 20.519531 18.183594 20.367188 C 17.816406 20.214844 17.488281 19.996094 17.207031 19.714844 C 16.925781 19.433594 16.707031 19.109375 16.554688 18.738281 C 16.402344 18.371094 16.328125 17.988281 16.328125 17.589844 C 16.328125 17.191406 16.402344 16.808594 16.554688 16.4375 C 16.707031 16.070312 16.925781 15.746094 17.207031 15.460938 C 17.488281 15.179688 17.816406 14.964844 18.183594 14.8125 C 18.550781 14.65625 18.933594 14.582031 19.335938 14.582031 C 19.734375 14.582031 20.117188 14.65625 20.484375 14.8125 C 20.851562 14.964844 21.179688 15.179688 21.460938 15.460938 C 21.742188 15.746094 21.960938 16.070312 22.113281 16.4375 C 22.265625 16.808594 22.339844 17.191406 22.339844 17.589844 C 22.34375 17.988281 22.269531 18.375 22.117188 18.746094 C 21.964844 19.117188 21.75 19.441406 21.464844 19.726562 C 21.183594 20.011719 20.859375 20.230469 20.488281 20.382812 C 20.121094 20.535156 19.734375 20.613281 19.335938 20.613281 Z M 19.335938 20.597656 " fill-opacity="1" fill-rule="nonzero"/></g></g></g></g></g></svg>