<svg width="33" height="38" viewBox="0 0 33 38" fill="none" xmlns="http://www.w3.org/2000/svg">
<mask id="mask0_1_265" style="mask-type:luminance" maskUnits="userSpaceOnUse" x="0" y="0" width="33" height="38">
<path d="M0.223938 0.760437H32.1719V37.6979H0.223938V0.760437Z" fill="white"/>
</mask>
<g mask="url(#mask0_1_265)">
<path d="M15.099 2.11457L15.5208 20.9583H14.8229L7.4323 13.9427C7.30209 13.8177 7.15105 13.7187 6.97918 13.6562C6.81251 13.5885 6.63542 13.5573 6.45313 13.5625C6.27084 13.5677 6.09376 13.6042 5.92709 13.6823C5.76043 13.7552 5.61459 13.8594 5.48959 13.9896C5.36459 14.1198 5.26563 14.2708 5.20313 14.4427C5.13542 14.6146 5.10418 14.7864 5.10938 14.9687C5.11459 15.151 5.15626 15.3281 5.22918 15.4948C5.30209 15.6614 5.40626 15.8073 5.53647 15.9323L10.9115 21.0625L1.65626 21.2604C1.47397 21.2656 1.30209 21.3073 1.13543 21.3802C0.968759 21.4531 0.817717 21.5521 0.692717 21.6875C0.567717 21.8177 0.468757 21.9687 0.406259 22.1354C0.338549 22.3073 0.307301 22.4844 0.312509 22.6667C0.312509 22.8489 0.354176 23.0208 0.427092 23.1927C0.500009 23.3594 0.604176 23.5052 0.734384 23.6302C0.864593 23.7552 1.01563 23.8542 1.18751 23.9167C1.35418 23.9844 1.53126 24.0156 1.71355 24.0156L13.7292 23.7552L14.0365 24.0521L6.92188 31.5052C6.79688 31.6354 6.69793 31.7864 6.63543 31.9583C6.56772 32.1302 6.53647 32.3073 6.54168 32.4896C6.54688 32.6719 6.58334 32.8437 6.66147 33.0104C6.73438 33.1771 6.83855 33.3229 6.96876 33.4479C7.09897 33.5781 7.25001 33.6719 7.42188 33.7344C7.59376 33.8021 7.76563 33.8333 7.94793 33.8281C8.13542 33.8229 8.3073 33.7864 8.47397 33.7135C8.64063 33.6354 8.78647 33.5364 8.91147 33.401L15.6198 26.3646L15.8281 35.9844C15.8646 36.3385 16.0156 36.6406 16.2865 36.8802C16.5573 37.1198 16.8698 37.2344 17.2344 37.2292C17.5938 37.2187 17.9063 37.0885 18.1667 36.8385C18.4219 36.5885 18.5677 36.2864 18.5886 35.9271L18.4167 28.2604L28.0886 37.5104C28.224 37.6354 28.375 37.7292 28.5417 37.7969C28.7135 37.8594 28.8906 37.8906 29.0729 37.8854C29.2552 37.8802 29.4271 37.8437 29.5938 37.7708C29.7604 37.6979 29.9063 37.5937 30.0313 37.4583C30.1615 37.3281 30.2552 37.1771 30.3177 37.0052C30.3854 36.8385 30.4167 36.6614 30.4115 36.4792C30.4063 36.2969 30.3698 36.125 30.2969 35.9583C30.2188 35.7917 30.1198 35.6406 29.9844 35.5156L18.3698 24.3542V23.651L31.1719 23.375C31.3542 23.375 31.5313 23.3333 31.6979 23.2604C31.8646 23.1875 32.0104 23.0833 32.1354 22.9531C32.2604 22.8177 32.3542 22.6667 32.4219 22.5C32.4896 22.3281 32.5156 22.151 32.5156 21.9687C32.5104 21.7864 32.4688 21.6146 32.3958 21.4479C32.3229 21.2812 32.2188 21.1302 32.0886 21.0052C31.9531 20.8802 31.8021 20.7864 31.6354 20.7187C31.4636 20.651 31.2865 20.625 31.1042 20.625L20.9375 20.8437L27.7969 13.6562C27.9219 13.526 28.0156 13.375 28.0833 13.2031C28.151 13.0312 28.1771 12.8542 28.1771 12.6719C28.1719 12.4896 28.1302 12.3177 28.0573 12.151C27.9844 11.9844 27.8802 11.8385 27.75 11.7135C27.6146 11.5885 27.4636 11.4896 27.2969 11.4271C27.125 11.3594 26.9479 11.3281 26.7656 11.3333C26.5833 11.3385 26.4115 11.375 26.2448 11.4531C26.0781 11.526 25.9323 11.625 25.8021 11.7604C23.2761 14.3958 20.7656 17.026 18.2761 19.651L17.8958 2.0677C17.8906 1.8802 17.8542 1.70311 17.7813 1.53124C17.7031 1.36457 17.599 1.21353 17.4688 1.08332C17.3333 0.953114 17.1823 0.859363 17.0104 0.786447C16.8386 0.718737 16.6563 0.687489 16.474 0.692697C16.2865 0.692697 16.1094 0.734363 15.9375 0.80728C15.7656 0.880196 15.6198 0.984363 15.4896 1.11978C15.3594 1.24999 15.2604 1.40624 15.1927 1.57811C15.125 1.74999 15.0938 1.92707 15.099 2.11457Z" fill="#FBE7C6"/>
</g>
</svg>
