<svg width="23" height="26" viewBox="0 0 23 26" fill="none" xmlns="http://www.w3.org/2000/svg">
<mask id="mask0_1_142" style="mask-type:luminance" maskUnits="userSpaceOnUse" x="0" y="0" width="23" height="26">
<path d="M0.333313 0.666687H23V26H0.333313V0.666687Z" fill="white"/>
</mask>
<g mask="url(#mask0_1_142)">
<mask id="mask1_1_142" style="mask-type:luminance" maskUnits="userSpaceOnUse" x="-3" y="-2" width="27" height="29">
<path d="M3.06249 -1.18747L23.5521 3.26045L18.4687 26.6771L-2.02084 22.2292L3.06249 -1.18747Z" fill="white"/>
</mask>
<g mask="url(#mask1_1_142)">
<mask id="mask2_1_142" style="mask-type:luminance" maskUnits="userSpaceOnUse" x="-3" y="-1" width="27" height="28">
<path d="M-2.08856 22.5365L18.401 26.9844L23.4844 3.56773L2.99477 -0.880188L-2.08856 22.5365Z" fill="white"/>
</mask>
<g mask="url(#mask2_1_142)">
<path d="M7.60416 23.7292L10.4948 11.7448L10.0469 11.6458L4.34895 15.1094C4.13541 15.2396 3.91145 15.2708 3.66666 15.2136C3.42708 15.1563 3.23958 15.0208 3.11458 14.8073C2.98437 14.5938 2.94791 14.3698 3.0052 14.1302C3.0677 13.8854 3.19791 13.7031 3.41145 13.5729L7.56249 11.0365L1.67187 9.62501C1.43229 9.56772 1.24478 9.4323 1.11458 9.22397C0.984367 9.01043 0.947911 8.78647 1.0052 8.54168C1.06249 8.30209 1.19791 8.11459 1.41145 7.98438C1.62499 7.85418 1.84895 7.81772 2.08853 7.87501L9.73437 9.70834L9.96874 9.56251L6.45833 3.81251C6.32812 3.59897 6.29166 3.3698 6.35416 3.13022C6.41145 2.89064 6.54687 2.70313 6.76041 2.57293C6.96874 2.44272 7.19791 2.41147 7.43749 2.46876C7.68229 2.52605 7.86458 2.66147 7.99478 2.87501L11.3021 8.30209L12.7708 2.18751C12.8437 1.95834 12.9844 1.79168 13.1927 1.67709C13.3958 1.56251 13.6146 1.53126 13.8437 1.58334C14.0729 1.64064 14.2552 1.76564 14.3854 1.95834C14.5156 2.15626 14.5625 2.3698 14.526 2.60418L13.3542 7.47918L20.8229 2.91147C21.0365 2.78126 21.2604 2.7448 21.5 2.8073C21.7448 2.86459 21.9271 3.00001 22.0573 3.21355C22.1875 3.42188 22.224 3.65105 22.1615 3.89063C22.1042 4.13022 21.9687 4.31772 21.7604 4.44793L12.7812 9.96876L12.6875 10.4167L20.8333 12.3698C21.0729 12.4323 21.2552 12.5677 21.3854 12.7761C21.5156 12.9896 21.5521 13.2136 21.4948 13.4583C21.4323 13.6979 21.2969 13.8854 21.0885 14.0156C20.875 14.1406 20.6458 14.1771 20.4062 14.1198L13.9375 12.5677L17.3229 18.1146C17.4531 18.3281 17.4896 18.5573 17.4271 18.7969C17.3698 19.0365 17.2344 19.224 17.026 19.3542C16.8125 19.4792 16.5833 19.5156 16.3437 19.4583C16.1042 19.4011 15.9167 19.2656 15.7865 19.0521C14.5365 17.0156 13.2969 14.9844 12.0677 12.9636L9.38541 24.1511C9.32812 24.3958 9.1927 24.5833 8.97916 24.7188C8.76041 24.849 8.53124 24.8906 8.28645 24.8333C8.04166 24.7708 7.84895 24.6354 7.71874 24.4219C7.58333 24.2083 7.54687 23.9792 7.60416 23.7292Z" fill="#FBE7C6"/>
</g>
</g>
</g>
</svg>
